<svg width="24" height="24" viewBox="-2.5 0 24 24" fill="none" xmlns="http://www.w3.org/2000/svg">
<path d="M19 6.5625V23.0625C19 23.5803 18.6154 24 18.141 24C17.6666 24 17.282 23.5803 17.282 23.0625V7.5H15.564V10.3125C15.564 10.8303 15.1794 11.25 14.705 11.25C14.2306 11.25 13.846 10.8303 13.846 10.3125V7.5H5.59974V10.3125C5.59974 10.8303 5.21517 11.25 4.74075 11.25C4.26633 11.25 3.88176 10.8303 3.88176 10.3125V7.5H2.16378V22.125H18.141C18.6154 22.125 19 22.5447 19 23.0625C19 23.5803 18.6154 24 18.141 24H1.30479C0.83037 24 0.445801 23.5803 0.445801 23.0625V6.5625C0.445801 6.04472 0.83037 5.625 1.30479 5.625H3.92239C4.26362 2.46202 6.73459 0 9.72288 0C12.7112 0 15.1821 2.46202 15.5234 5.625H18.141C18.6154 5.625 19 6.04472 19 6.5625ZM13.7884 5.625C13.4603 3.49945 11.7623 1.875 9.72288 1.875C7.68351 1.875 5.98546 3.49945 5.65733 5.625H13.7884Z" fill="white"/>
</svg>
