<svg width="24" height="24" viewBox="-3 -3 24 24" fill="none" xmlns="http://www.w3.org/2000/svg">
<path d="M1.61977 0.277908C1.24922 -0.0926361 0.648453 -0.0926361 0.277908 0.277908C-0.0926361 0.648453 -0.0926361 1.24922 0.277908 1.61977L7.65814 9L0.277909 16.3802C-0.0926349 16.7508 -0.0926349 17.3515 0.277909 17.7221C0.648455 18.0926 1.24922 18.0926 1.61977 17.7221L9 10.3419L16.3801 17.722C16.7507 18.0925 17.3514 18.0925 17.722 17.722C18.0925 17.3514 18.0925 16.7507 17.722 16.3801L10.3419 9L17.7221 1.61977C18.0926 1.24922 18.0926 0.648453 17.7221 0.277908C17.3515 -0.0926361 16.7508 -0.0926361 16.3802 0.277908L9 7.65814L1.61977 0.277908Z" fill="black"/>
</svg>
