<svg width="24" height="24" viewBox="0.5 0 24 24" fill="none" xmlns="http://www.w3.org/2000/svg">
<path fill-rule="evenodd" clip-rule="evenodd" d="M12.4458 24.0827C5.81838 24.0827 0.445801 18.7101 0.445801 12.0827C0.445801 5.45527 5.81838 0.0826836 12.4458 0.0826836C19.0732 0.0826836 24.4458 5.45527 24.4458 12.0827C24.4458 18.7101 19.0732 24.0827 12.4458 24.0827ZM12.4458 22.0827C17.9686 22.0827 22.4458 17.6055 22.4458 12.0827C22.4458 6.55984 17.9686 2.08268 12.4458 2.08268C6.92295 2.08268 2.4458 6.55984 2.4458 12.0827C2.4458 17.6055 6.92295 22.0827 12.4458 22.0827ZM10.9502 13.5802H16.9502V10.5802H13.9512V6.0802H10.9502V13.5802Z" fill="white"/>
</svg>
