<svg width="24" height="24" viewBox="0.5 0.5 24 24" fill="none" xmlns="http://www.w3.org/2000/svg">
<path fill-rule="evenodd" clip-rule="evenodd" d="M11.3024 8.39542C11.8205 7.69241 12.0063 6.95148 11.4203 6.29748C10.1053 4.44482 9.22101 3.29914 8.66631 2.74741C7.61175 1.6985 5.87698 1.84038 4.96365 2.74651C4.4731 3.23321 4.30702 3.40034 3.80333 3.91548C0.997678 6.74198 2.70871 12.7171 7.25725 17.3015C11.8048 21.8848 17.7384 23.6086 20.55 20.7761C21.0148 20.3249 21.4083 19.9285 21.7187 19.5982C22.6137 18.6456 22.7496 16.976 21.7128 15.8912C21.1812 15.3351 20.0962 14.4877 18.1788 13.1067C17.5915 12.578 16.8953 12.6926 16.2569 13.1143C15.9498 13.3171 15.7264 13.5223 15.3044 13.9476L14.5382 14.7195C14.4372 14.8212 13.0668 14.1302 11.7366 12.7894C10.4056 11.4479 9.71976 10.068 9.82021 9.96689L10.587 9.19441C10.7209 9.05948 10.7849 8.99416 10.8669 8.9073C11.0379 8.72633 11.1795 8.5621 11.3024 8.39542ZM15.9516 16.1435L16.718 15.3714C16.9502 15.1373 17.1007 14.9934 17.2232 14.8942C18.9028 16.1087 19.8756 16.8724 20.2729 17.2881C20.5115 17.5377 20.4744 17.9931 20.267 18.2138C19.98 18.5192 19.6072 18.8948 19.1496 19.3392C17.3316 21.1705 12.5418 19.7791 8.67099 15.8778C4.79901 11.9753 3.41774 7.15181 5.22206 5.33406C5.72372 4.82104 5.88266 4.66108 6.36622 4.18134C6.54752 4.00146 7.04138 3.96107 7.26194 4.18044C7.689 4.60522 8.4812 5.62656 9.64657 7.26109C9.58624 7.33651 9.51089 7.42173 9.41919 7.51877C9.35189 7.58999 9.29582 7.64722 9.17324 7.77076L8.40722 8.54249C7.10407 9.85451 8.21388 12.0875 10.3228 14.2131C12.4303 16.3372 14.6489 17.4559 15.9516 16.1435Z" fill="white"/>
</svg>
