<svg width="24" height="24" viewBox="-2.5 0 24 24" fill="none" xmlns="http://www.w3.org/2000/svg">
<path d="M19 6.64518V23.1452C19 23.663 18.6154 24.0827 18.141 24.0827C17.6666 24.0827 17.282 23.663 17.282 23.1452V7.58268H15.564V10.3952C15.564 10.913 15.1794 11.3327 14.705 11.3327C14.2306 11.3327 13.846 10.913 13.846 10.3952V7.58268H5.59974V10.3952C5.59974 10.913 5.21517 11.3327 4.74075 11.3327C4.26633 11.3327 3.88176 10.913 3.88176 10.3952V7.58268H2.16378V22.2077H18.141C18.6154 22.2077 19 22.6274 19 23.1452C19 23.663 18.6154 24.0827 18.141 24.0827H1.30479C0.83037 24.0827 0.445801 23.663 0.445801 23.1452V6.64518C0.445801 6.1274 0.83037 5.70768 1.30479 5.70768H3.92239C4.26362 2.5447 6.73459 0.0826836 9.72288 0.0826836C12.7112 0.0826836 15.1821 2.5447 15.5234 5.70768H18.141C18.6154 5.70768 19 6.1274 19 6.64518ZM13.7884 5.70768C13.4603 3.58214 11.7623 1.95768 9.72288 1.95768C7.68351 1.95768 5.98546 3.58214 5.65733 5.70768H13.7884Z" fill="white"/>
</svg>
