<svg width="46" height="46" viewBox="0 0 46 46" fill="none" xmlns="http://www.w3.org/2000/svg">
<path d="M19.0881 7.14913C18.8248 7.41245 18.8833 7.69772 19.2929 8.07807C19.505 8.27556 19.7171 8.56083 19.8122 8.78757C20.0536 9.34348 19.9878 9.73114 19.4977 10.7113C18.9857 11.728 18.7516 12.3936 18.6419 13.1031C18.5029 14.0467 18.6931 14.9829 19.1978 15.7656L19.4465 16.1606L19.1393 16.5482C18.9637 16.7604 18.6785 17.1407 18.5029 17.3894C18.1153 17.9307 17.5228 18.3476 16.9084 18.5158C16.5426 18.6182 16.4476 18.6841 16.3817 18.8523C16.3305 18.962 16.3159 19.1376 16.3378 19.24C16.411 19.5399 16.2574 19.9934 15.6357 21.2734C15.0066 22.59 14.7945 23.3141 14.8749 23.9139C14.9115 24.1699 14.8969 24.265 14.8164 24.2943C14.4726 24.426 12.8854 25.8596 10.7788 27.9369C8.49671 30.1825 7.66286 30.9285 7.28251 31.0456C6.90215 31.1626 6.72661 31.6015 6.96067 31.894C7.09965 32.0769 8.65032 33.0644 9.4988 33.5179C11.9126 34.7906 14.0923 35.2587 15.7088 34.8637C16.5646 34.6589 17.8812 33.9787 18.9345 33.1887L19.5416 32.7425L19.8415 32.8303C20.0097 32.8742 20.5364 33.1229 21.0191 33.3789C22.599 34.2127 23.6743 34.4395 24.8153 34.1908C25.3786 34.0591 26.0881 33.7446 26.3587 33.4886C26.4904 33.3643 26.5635 33.3569 27.0901 33.4155C27.9167 33.5105 28.319 33.6203 28.5969 33.8251C28.7359 33.9275 28.9407 34.0006 29.0724 34.0006C29.3284 34.0006 29.4674 33.8616 30.5938 32.4426C30.9229 32.033 31.2301 31.7185 31.3252 31.7039C33.6805 31.265 34.3242 30.7457 35.7944 28.0832C36.0284 27.659 36.3576 27.1908 36.5331 27.0153C36.7526 26.8105 36.855 26.6496 36.855 26.5179C36.855 26.4155 36.6941 25.9254 36.4893 25.4427C36.2918 24.9526 36.0138 24.2065 35.8748 23.775C35.6261 23.0069 35.6261 22.9777 35.6627 22.0414C35.7286 20.4834 35.436 19.6862 34.2949 18.311C33.1173 16.8993 32.3712 15.7583 32.1445 15.0268C31.9616 14.449 31.808 14.3612 31.1716 14.4636C30.6742 14.5441 29.0139 14.705 28.9846 14.6684C28.9773 14.6611 28.8017 14.3246 28.5969 13.9223C27.134 11.0478 24.0473 8.45111 20.8289 7.37588C19.6659 6.98821 19.3002 6.93701 19.0881 7.14913ZM21.9042 8.90461C23.3451 9.59948 24.435 10.3968 25.598 11.5963C26.5342 12.5619 27.2803 13.5493 27.7046 14.3758L27.8582 14.6904H27.5729C27.0389 14.6904 25.7735 14.5368 25.3347 14.4197C24.6764 14.2442 23.3744 14.2588 22.6283 14.4636C22.0578 14.6099 20.9679 15.1073 20.4925 15.4218L20.2584 15.5754L20.0755 15.2609C19.3807 14.076 19.4465 13.1543 20.3608 11.2526C20.6168 10.7113 20.8728 10.1042 20.9167 9.91401C20.9972 9.58485 20.9752 9.00701 20.8655 8.63397C20.7924 8.39259 20.9167 8.42185 21.9042 8.90461ZM25.0713 15.3852C25.3274 15.4511 25.7443 15.5974 25.9857 15.7144C26.4099 15.9192 27.4559 16.6507 27.3974 16.7092C27.39 16.7238 27.0316 16.636 26.6074 16.5117C25.1152 16.0801 24.3545 15.9265 24.179 16.0143C23.8791 16.1752 22.8477 17.0895 22.0358 17.9234C20.946 19.0425 20.1341 20.1397 19.5562 21.31C18.9418 22.5461 18.7077 23.4019 18.6712 24.6015L18.6492 25.4792L18.3932 25.7133C18.0421 26.0351 17.6179 26.0498 17.2083 25.7499C16.4695 25.2159 15.8624 24.287 15.8624 23.7018C15.8624 23.2922 16.0892 22.6412 16.5865 21.6538C17.0912 20.6444 17.3253 20.0153 17.3253 19.6642C17.3253 19.5033 17.3911 19.4521 17.8154 19.2619C18.3786 19.0205 19.1027 18.3403 19.7025 17.5064C20.3462 16.6141 21.6701 15.7437 22.8843 15.4291C23.5499 15.2536 24.435 15.239 25.0713 15.3852ZM31.4057 15.9119C31.6763 16.5117 32.5687 17.8137 33.3148 18.7133C34.1194 19.6862 34.3388 20.0226 34.5217 20.6151C34.6826 21.1052 34.7411 22.1585 34.6241 22.5096C34.5802 22.6558 34.5363 22.59 34.3315 22.0414C33.7098 20.3884 32.2249 18.9255 30.0891 17.8502C29.5039 17.5576 29.3137 17.426 29.1236 17.1627C28.9919 16.9798 28.6554 16.5848 28.3702 16.2849L27.8582 15.729L28.8602 15.6778C29.4161 15.6486 30.1037 15.6047 30.3817 15.5681C31.2594 15.473 31.1936 15.4511 31.4057 15.9119ZM25.3127 17.4406C26.4977 18.0477 27.2511 18.8084 27.8508 20.008C28.0776 20.4688 28.4726 21.705 28.4141 21.7708C28.3921 21.7854 28.2093 21.6538 28.0045 21.4709C27.5071 21.0247 26.7244 20.4396 25.9564 19.9349C25.1957 19.4375 23.645 18.5963 23.389 18.5305C23.2354 18.4939 23.1037 18.5524 22.7088 18.8523C22.4454 19.0571 22.226 19.1961 22.226 19.1668C22.226 19.0571 24.3618 17.031 24.4716 17.031C24.4935 17.031 24.8665 17.2139 25.3127 17.4406ZM29.9794 18.9108C33.6732 20.9296 34.6387 23.87 32.8101 27.5273C32.2981 28.5586 31.6398 29.4876 29.7307 31.8794C29.3284 32.3841 28.9992 32.801 28.9919 32.8084C28.9846 32.823 28.8164 32.7645 28.6116 32.684C28.4067 32.6035 27.9313 32.5085 27.551 32.4646C24.6252 32.1281 23.6304 31.8648 21.8969 30.9797C21.18 30.6067 20.9167 30.4238 20.4559 29.9776C19.9805 29.5022 19.8854 29.3705 19.7757 28.9975C19.6586 28.6098 19.6659 28.1125 19.783 27.9223C19.8049 27.8857 20.039 28.0393 20.3096 28.2587C22.0505 29.6778 25.0128 30.1825 27.5656 29.5022C30.0525 28.8366 31.6178 27.4688 32.1445 25.5158C32.32 24.8429 32.3054 23.6067 32.1152 22.8753C31.7129 21.3612 30.6011 19.8471 28.8822 18.472L28.6262 18.2672L29.0651 18.4573C29.3064 18.5597 29.716 18.7645 29.9794 18.9108ZM24.8227 20.3957C25.1664 20.6005 25.4444 20.776 25.4444 20.7907C25.4444 20.8053 25.2249 20.798 24.947 20.776C23.528 20.6809 22.4016 21.3685 21.7067 22.7729L21.4068 23.38L20.9825 23.4604C20.7485 23.5043 20.4047 23.6214 20.2218 23.7164C19.8854 23.8847 19.8781 23.892 19.9293 23.7311C20.0463 23.358 20.4925 22.5754 20.8948 22.0414C21.319 21.4709 22.482 20.286 23.0599 19.8251L23.3451 19.5984L23.7694 19.8178C24.0034 19.9349 24.4789 20.1982 24.8227 20.3957ZM29.4966 20.3298C30.1915 21.0686 30.7181 21.8659 31.018 22.6266C31.2082 23.1093 31.2521 23.3434 31.2813 23.9798C31.3399 25.2817 31.0619 26.0863 30.2573 26.9494C29.877 27.3517 28.8822 28.0759 28.6993 28.0759C28.6701 28.0759 28.9846 27.7248 29.4015 27.2859C30.2793 26.3935 30.5865 25.9693 30.7108 25.5231C30.8571 24.9892 30.645 24.4552 29.9501 23.5628C29.6429 23.1679 29.5405 22.9777 29.5405 22.7948C29.5405 22.1292 29.1821 20.6151 28.8529 19.8617C28.7286 19.5911 28.9627 19.7593 29.4966 20.3298ZM24.5374 22.0122C24.2009 22.3779 23.8059 22.9923 23.6523 23.38C23.5865 23.5409 23.4768 23.9578 23.4036 24.3016L23.2793 24.938L22.7819 24.4186C22.2406 23.8408 22.248 23.8847 22.5771 23.1825C22.9867 22.2974 23.762 21.7342 24.5959 21.7196L24.8007 21.7123L24.5374 22.0122ZM26.3221 22.4949C26.9146 23.3288 26.9877 24.1334 26.5635 25.2744C26.4538 25.567 26.4318 25.589 26.0442 25.6694C25.6199 25.7572 25.0275 25.7206 24.552 25.589C24.2814 25.5085 24.2741 25.5012 24.2741 25.1647C24.2741 24.6527 24.4569 23.9066 24.6837 23.4604C24.8665 23.0874 25.7955 22.078 25.9491 22.078C25.993 22.078 26.1539 22.2682 26.3221 22.4949ZM28.319 23.2703C28.7725 23.6214 29.46 24.4333 29.6795 24.8794C29.7965 25.1062 29.8038 25.2086 29.7453 25.3841C29.6722 25.5816 26.9 28.544 26.6513 28.683C26.5928 28.7122 26.1685 28.7561 25.715 28.7854C22.8404 28.939 20.4193 27.7614 19.8415 25.9181L19.7171 25.5231L19.9219 25.2452C20.2877 24.7478 20.7777 24.4406 21.2312 24.404C21.4434 24.3894 21.5238 24.426 21.6189 24.5649C22.1967 25.3915 23.1842 26.1229 24.2009 26.4813C25.0201 26.7666 26.6805 26.6934 27.0536 26.357C27.2291 26.1961 27.5363 25.5012 27.6826 24.9307C27.7996 24.4625 27.7923 23.519 27.668 22.9996C27.6241 22.8168 27.6314 22.8021 27.7558 22.868C27.8362 22.9119 28.0849 23.0874 28.319 23.2703ZM35.3848 25.3988L35.7505 26.3423L35.5457 26.5837C35.4287 26.7081 35.0849 27.2567 34.785 27.8052C34.1706 28.8878 33.7024 29.5461 33.2928 29.9118C33.0149 30.1532 32.2981 30.5189 32.181 30.475C32.1445 30.4604 32.2981 30.2044 32.5175 29.9045C33.0953 29.1219 33.6732 28.1051 34.017 27.2932C34.2949 26.6203 34.6606 25.3622 34.6606 25.055C34.6606 24.9233 34.9459 24.3821 34.9898 24.4333C35.0044 24.4479 35.18 24.8794 35.3848 25.3988ZM16.8718 26.7081C17.5301 27.0592 18.2689 27.0445 18.8028 26.6715L19.0076 26.5325L19.0808 26.7227C19.1393 26.8763 19.1173 26.9787 18.9564 27.2932C18.7736 27.637 18.7516 27.7467 18.7516 28.4416C18.7516 29.1145 18.7736 29.2608 18.9418 29.6119C19.4538 30.7018 20.668 31.6307 22.5698 32.3914C23.3817 32.7133 24.435 33.0497 24.6544 33.0497C24.8739 33.0497 24.8007 33.1741 24.5593 33.2253C23.7255 33.3935 22.9501 33.2107 21.6408 32.545C21.0996 32.2671 20.3608 31.9306 19.9951 31.799C19.3953 31.5795 19.2563 31.5576 18.4371 31.5429L17.5301 31.5283L17.2083 30.9651C16.806 30.2629 16.4695 29.7948 15.8843 29.1511C14.714 27.8418 14.4873 26.5033 15.2992 25.6109L15.4455 25.4427L15.9648 25.9766C16.2501 26.2619 16.6597 26.5984 16.8718 26.7081ZM14.0265 28.032C14.2386 28.6464 14.5751 29.1657 15.1602 29.8167C15.76 30.4823 16.1623 31.0894 16.6231 32.0038C17.0108 32.7791 17.1424 32.8596 17.6179 32.6474C17.7715 32.5816 17.9397 32.5377 17.9909 32.5523C18.1811 32.6182 16.5646 33.5105 15.6795 33.8251C15.0871 34.0372 13.6827 34.0079 12.7757 33.7592C11.5761 33.4301 9.29399 32.3622 8.4894 31.7478L8.32116 31.6161L8.78198 31.2577C9.03798 31.0602 10.2595 29.8826 11.5103 28.6464L13.7778 26.4009L13.8217 27.0007C13.8509 27.3298 13.9387 27.7979 14.0265 28.032Z" fill="white"/>
</svg>
