<svg width="45" height="46" viewBox="0 0 45 46" fill="none" xmlns="http://www.w3.org/2000/svg">
<path d="M10.2881 26.4861L11.2041 26.2195C11.2406 26.5477 11.3044 26.8507 11.3955 27.1287C11.4912 27.4067 11.6188 27.6665 11.7783 27.908C11.9378 28.145 12.1475 28.3318 12.4072 28.4686C12.6715 28.6053 12.9701 28.6736 13.3027 28.6736C13.8359 28.6736 14.2484 28.5255 14.54 28.2293C14.8317 27.9331 14.9775 27.5138 14.9775 26.9715C14.9775 26.5203 14.8431 26.0851 14.5742 25.6658C14.3099 25.2466 13.918 24.7635 13.3984 24.2166L11.5596 22.282C11.1585 21.8582 10.8509 21.4617 10.6367 21.0926C10.4225 20.7234 10.3154 20.3361 10.3154 19.9305C10.3154 19.1603 10.5684 18.5451 11.0742 18.0848C11.5801 17.6245 12.2295 17.3943 13.0225 17.3943C13.7926 17.3943 14.4124 17.6131 14.8818 18.0506C15.3512 18.4835 15.6634 19.1147 15.8184 19.9442L15.8389 20.0535L14.9639 20.327L14.9502 20.2313C14.859 19.6434 14.6471 19.1626 14.3145 18.7889C13.9863 18.4152 13.5557 18.2283 13.0225 18.2283C12.5029 18.2283 12.0882 18.3605 11.7783 18.6248C11.473 18.8891 11.3203 19.2788 11.3203 19.7938C11.3203 20.1037 11.4023 20.409 11.5664 20.7098C11.735 21.0106 11.9743 21.3296 12.2842 21.6668L14.0137 23.5467C14.0592 23.5968 14.1732 23.7221 14.3555 23.9227C14.5378 24.1186 14.6562 24.2485 14.7109 24.3123C14.7702 24.3761 14.875 24.4992 15.0254 24.6815C15.1803 24.8637 15.2852 25.0027 15.3398 25.0984C15.3991 25.1896 15.4811 25.3218 15.5859 25.4949C15.6908 25.6636 15.7614 25.8117 15.7979 25.9393C15.8389 26.0669 15.8776 26.215 15.9141 26.3836C15.9505 26.5522 15.9688 26.7186 15.9688 26.8826C15.9688 27.7212 15.709 28.3683 15.1895 28.824C14.6745 29.2798 14.0068 29.5076 13.1865 29.5076C12.7673 29.5076 12.3867 29.4279 12.0449 29.2684C11.7031 29.1043 11.4137 28.881 11.1768 28.5984C10.9443 28.3159 10.7529 27.9969 10.6025 27.6414C10.4567 27.2859 10.3519 26.9009 10.2881 26.4861ZM18.6755 25.5701H21.1364L19.8991 18.6385L18.6755 25.5701ZM17.9509 29.3231H16.905L19.2292 17.5584H20.5827L22.907 29.3231H21.8542L21.2663 26.2606H18.5525L17.9509 29.3231ZM24.5063 29.3231V17.5584H25.5454V28.4891H28.8334V29.3231H24.5063ZM30.0636 29.3231V17.5584H34.1652V18.3924H31.1027V22.8494H33.2902V23.6356H31.1027V28.4891H34.1652V29.3231H30.0636Z" fill="white"/>
</svg>
