<svg width="46" height="46" viewBox="0 0 46 46" fill="none" xmlns="http://www.w3.org/2000/svg">
<path d="M21.5348 7.07773C18.0766 7.66973 15.2924 10.0143 14.1905 13.2615C13.7216 14.6389 13.7216 14.6389 13.6981 18.5191L13.6747 21.9832L13.4696 22.0183C13.2117 22.0711 13.0768 22.2704 13.0827 22.5986C13.0886 22.7334 13.2527 24.1871 13.4461 25.8282C13.8271 29.0403 13.8564 29.1868 14.2081 29.4506C14.3663 29.5678 14.3663 29.5795 14.2901 29.7671C14.1495 30.107 14.1846 30.6052 14.3781 30.9921L14.548 31.3262L14.3722 31.6544C14.2139 31.9534 14.2022 32.0296 14.2198 32.434C14.2374 32.815 14.2667 32.9205 14.4308 33.1843L14.6184 33.4949L14.5187 33.7762C14.425 34.0459 14.425 34.1045 14.5246 34.9544C14.6653 36.2087 14.8411 36.5663 15.4683 36.8593L15.7613 37H23.0001H30.2389L30.532 36.8593C31.1592 36.5663 31.335 36.2087 31.4757 34.9544C31.5753 34.1045 31.5753 34.0459 31.4815 33.7762L31.3819 33.4949L31.5695 33.1843C31.7336 32.9205 31.7629 32.815 31.7805 32.434C31.798 32.0296 31.7863 31.9534 31.6281 31.6544L31.4522 31.3262L31.6222 30.9921C31.8156 30.6052 31.8508 30.107 31.7101 29.7671C31.6339 29.5795 31.6339 29.5678 31.7922 29.4506C32.1439 29.1868 32.1732 29.0403 32.5542 25.8282C32.7476 24.1871 32.9117 22.7334 32.9176 22.5986C32.9234 22.2704 32.7886 22.0711 32.5307 22.0183L32.3256 21.9832L32.3021 18.5191C32.2845 15.1957 32.2787 15.0257 32.1497 14.463C31.6808 12.3588 30.6844 10.6356 29.1546 9.29332C27.8065 8.10933 26.2356 7.37666 24.4069 7.07187C23.7914 6.97222 22.1444 6.97808 21.5348 7.07773ZM23.8207 8.04485C27.5427 8.43756 30.4499 11.1514 31.1826 14.932C31.2588 15.3129 31.2822 16.0398 31.3057 18.695L31.335 21.9949H29.8052C28.9611 21.9949 28.2754 21.9715 28.2754 21.948C28.2754 21.7839 28.4453 21.7136 28.8732 21.6901C29.981 21.6198 30.7489 20.7875 30.7547 19.6386C30.7606 19.2401 30.7371 19.1404 30.5554 18.777L30.3503 18.3609L30.5554 17.9447C30.7371 17.5813 30.7606 17.4817 30.7547 17.0831C30.7547 16.4911 30.5906 16.0632 30.2213 15.6764C29.8286 15.2602 29.4125 15.0668 28.8439 15.0316L28.3867 15.0023L28.2695 14.7737C28.1112 14.463 27.7537 14.1172 27.3844 13.9238C27.1031 13.7773 27.021 13.7597 26.4583 13.7597C25.9425 13.7597 25.8077 13.7773 25.6084 13.8828L25.374 14.0117V13.4432C25.3681 12.9508 25.3505 12.8395 25.204 12.5464C25.0106 12.1478 24.571 11.7199 24.1841 11.5499C24.0141 11.4738 23.7387 11.4151 23.4632 11.3976C23.0236 11.3741 23.0119 11.3682 22.9181 11.1748C22.7657 10.8524 22.3847 10.4832 22.0213 10.2956C21.7106 10.1432 21.6286 10.1256 21.0952 10.1256C20.5618 10.1256 20.4797 10.1432 20.1691 10.2956C19.8057 10.4832 19.4247 10.8524 19.2723 11.1748C19.1785 11.3682 19.1727 11.3741 18.7213 11.3976C17.2325 11.4855 16.3709 12.9743 17.0157 14.3517L17.1974 14.7385L17.0157 15.1137C16.6699 15.817 16.7226 16.5614 17.1681 17.2179L17.4201 17.5813L16.9922 17.6165C16.4237 17.6575 16.0017 17.8626 15.6207 18.2729C15.2162 18.7184 15.0697 19.1228 15.099 19.7383C15.1107 20.1251 15.1518 20.2775 15.3042 20.5882L15.4917 20.9633L15.3511 21.1978C15.2749 21.3326 15.1811 21.5612 15.14 21.7136C15.0756 21.9832 15.0638 21.9949 14.8704 21.9949H14.6653L14.6946 18.695C14.7239 15.1606 14.7297 15.0726 15.058 13.9355C15.2573 13.2439 15.8024 12.1302 16.2654 11.4796C17.9887 9.07059 20.9076 7.74006 23.8207 8.04485ZM21.652 11.292C21.8923 11.4503 22.1209 11.8137 22.1209 12.0306C22.1209 12.183 22.2264 12.3881 22.3495 12.4819C22.4785 12.5816 22.7188 12.5757 23.0529 12.4643C23.3928 12.353 23.7152 12.4174 23.9966 12.6519C24.5006 13.0798 24.4831 13.7714 23.9555 14.252C23.6976 14.4924 23.6918 14.5099 23.7152 14.7796L23.7445 15.055L23.469 15.1547C22.9239 15.3481 22.4199 15.8698 22.244 16.4383C22.203 16.5556 22.1737 16.8135 22.1678 17.0069L22.162 17.3527H21.7986C21.5993 17.3527 21.3824 17.3644 21.3238 17.382C21.2417 17.4055 21.1714 17.3468 21.0366 17.1476C20.5149 16.3563 19.3368 16.0808 18.4341 16.5321L18.0707 16.7138L17.9594 16.5262C17.8128 16.2918 17.807 15.8463 17.9359 15.5884C17.9887 15.4829 18.1352 15.3071 18.2583 15.1957C18.5982 14.8851 18.5924 14.6037 18.2231 14.2403C17.9242 13.9414 17.8421 13.7655 17.8421 13.4021C17.8421 13.0856 17.9476 12.8629 18.1938 12.6519C18.4752 12.4174 18.7975 12.353 19.1375 12.4643C19.2899 12.5171 19.495 12.5581 19.583 12.5581C19.7881 12.5581 19.9991 12.3764 20.046 12.1595C20.1574 11.6144 20.3684 11.3272 20.7728 11.1572C21.0014 11.0576 21.3941 11.1221 21.652 11.292ZM26.7631 14.7854C27.1207 14.8851 27.5134 15.4302 27.5134 15.8287C27.5134 15.9577 27.7947 16.1922 27.953 16.1922C28.0409 16.1922 28.2402 16.1511 28.3985 16.0984C28.6505 16.0163 28.7325 16.0105 28.9377 16.0749C29.2894 16.1804 29.4769 16.3328 29.6176 16.62C29.8462 17.0889 29.7583 17.4465 29.307 17.9037C28.9377 18.2788 28.9436 18.4312 29.3304 18.8649C29.6586 19.2166 29.7407 19.3866 29.7407 19.6621C29.7407 19.92 29.5297 20.3303 29.3245 20.4768C29.0139 20.6937 28.7736 20.7288 28.3223 20.6116C27.8006 20.4768 27.6423 20.5413 27.5251 20.9399C27.3141 21.6784 26.9331 22.0301 26.388 21.9773C26.2356 21.9656 26.048 21.9128 25.966 21.8601L25.8195 21.7604L25.9425 21.485C26.1067 21.1157 26.1418 20.5237 26.0246 20.1486C25.9777 19.9903 25.9425 19.8555 25.9484 19.8496C25.9543 19.8438 26.0715 19.8555 26.2063 19.879C26.7514 19.9786 27.3669 19.7324 27.6892 19.287C27.9178 18.9763 27.9178 18.7536 27.6951 18.5308C27.4372 18.2788 27.1383 18.3257 26.8745 18.6598C26.64 18.9646 26.1887 18.9235 26.0129 18.5836C25.837 18.2378 26.1301 17.8333 26.5638 17.8333C26.6811 17.8333 26.8862 17.634 26.9507 17.4582C27.0034 17.3058 26.8862 16.9659 26.7514 16.8955C26.5463 16.7841 26.0891 16.831 25.7667 16.9893C25.1981 17.2706 24.9109 17.7689 24.9461 18.4253C24.9578 18.6481 24.9637 18.8298 24.9637 18.8298C24.9637 18.7887 24.3072 18.6539 24.1079 18.6539H23.8324L23.8618 18.4253C23.8911 18.2085 23.8735 18.1733 23.598 17.8802C23.1467 17.4055 23.0705 17.0889 23.2991 16.62C23.4397 16.3328 23.6273 16.1804 23.979 16.0749C24.1841 16.0105 24.2662 16.0163 24.5182 16.0984C25.0809 16.2801 25.2978 16.1804 25.4326 15.6764C25.5264 15.3012 25.6319 15.1312 25.8839 14.9437C26.1711 14.7268 26.3997 14.6858 26.7631 14.7854ZM19.8057 17.4406C19.9581 17.511 20.1808 17.7161 20.2512 17.8451C20.2863 17.9154 20.2453 18.0209 20.0988 18.2436C19.9874 18.4136 19.8936 18.5719 19.8936 18.5953C19.8936 18.6188 19.6885 18.6539 19.4423 18.6656C18.6393 18.7008 18.0356 19.0994 17.6839 19.8145C17.5373 20.1075 17.5198 20.213 17.5198 20.7113C17.5198 21.2271 17.5373 21.3033 17.7073 21.6315L17.8949 21.9949H17.0157C16.535 21.9949 16.1423 21.9773 16.1423 21.9597C16.1423 21.866 16.3006 21.6432 16.5292 21.4322C16.8985 21.0864 16.8867 20.8754 16.4999 20.4475C16.0134 19.9083 15.9724 19.4452 16.3768 18.9822C16.6816 18.6363 16.8164 18.6129 17.7718 18.7477C18.1059 18.7946 18.2817 18.6422 18.3697 18.226C18.522 17.5051 19.1961 17.1358 19.8057 17.4406ZM22.2147 18.4722C22.5019 18.6012 22.6836 18.8239 22.7715 19.1463C22.8888 19.5859 22.9474 19.6914 23.0939 19.7617C23.2873 19.8496 23.3753 19.8438 23.7269 19.7324C23.9731 19.6562 24.0728 19.6504 24.272 19.7031C24.7527 19.8321 25.0516 20.2072 25.0516 20.6761C25.0516 21.0161 24.9285 21.2681 24.6296 21.5319C24.4186 21.7136 24.3893 21.7722 24.3893 21.9949C24.3893 22.2176 24.4186 22.2762 24.6296 22.458C24.9285 22.7217 25.0516 22.9738 25.0516 23.3137C25.0516 23.7826 24.7527 24.1577 24.272 24.2867C24.0728 24.3394 23.9731 24.3336 23.7269 24.2574C23.3753 24.146 23.2873 24.1402 23.0939 24.2281C22.9474 24.2984 22.8888 24.4039 22.7715 24.8435C22.6836 25.1659 22.5019 25.3886 22.2147 25.5176C21.9099 25.6583 21.6872 25.6524 21.3824 25.5176C21.0717 25.3769 20.8432 25.078 20.7787 24.7146C20.7201 24.4039 20.5091 24.1636 20.2922 24.1636C20.2277 24.1636 20.0343 24.2046 19.8643 24.2574C19.6064 24.3277 19.5009 24.3336 19.2958 24.2808C18.7975 24.146 18.4283 23.5775 18.5396 23.1086C18.6041 22.8096 18.6803 22.6983 18.9499 22.4521C19.1551 22.2645 19.1902 22.2059 19.1902 21.9949C19.1902 21.7839 19.1551 21.7253 18.9499 21.5377C18.6803 21.2915 18.6041 21.1802 18.5396 20.8812C18.4283 20.4123 18.7975 19.8438 19.2958 19.709C19.5009 19.6562 19.6064 19.6621 19.8643 19.7324C20.0343 19.7852 20.2277 19.8262 20.2922 19.8262C20.5091 19.8262 20.7201 19.5859 20.7787 19.2752C20.8432 18.9118 21.0717 18.6129 21.3824 18.4722C21.6872 18.3374 21.9099 18.3316 22.2147 18.4722ZM17.5022 23.4602C17.5784 24.5094 18.3697 25.2714 19.4306 25.3242C19.876 25.3476 19.876 25.3476 19.9757 25.5469C20.1163 25.8517 20.5266 26.2678 20.8373 26.4261C21.3707 26.6957 22.1033 26.7074 22.666 26.4613C23.0119 26.3089 23.4163 25.9337 23.5863 25.6055L23.7269 25.3476L24.1783 25.3242C24.7585 25.289 25.1747 25.0956 25.5674 24.6677C25.8839 24.316 26.1067 23.765 26.1067 23.3137V23.0499H28.9787H31.8567L31.8215 23.2375C31.7863 23.4485 31.206 28.3955 31.206 28.4952C31.206 28.5245 31.165 28.5948 31.1123 28.6417C31.0361 28.7179 30.8602 28.7355 30.0924 28.7355C29.5824 28.7355 29.096 28.7589 29.008 28.7941C28.9201 28.8293 28.8205 28.9348 28.7677 29.0578C28.6974 29.2337 28.6974 29.2923 28.7677 29.4623C28.8791 29.726 29.0901 29.7905 29.8403 29.7905C30.4089 29.7905 30.4617 29.8022 30.5906 29.9371C30.8133 30.1539 30.8075 30.4529 30.5847 30.658C30.4558 30.7752 30.3737 30.787 29.8697 30.787C29.1194 30.787 28.8732 30.8573 28.7736 31.0976C28.6739 31.3438 28.7208 31.5841 28.9084 31.7248C29.0315 31.8244 29.1428 31.842 29.6938 31.842C30.4206 31.842 30.6316 31.9123 30.7313 32.1937C30.8016 32.4047 30.7489 32.5805 30.5613 32.7505C30.4499 32.8502 30.3268 32.8736 29.7055 32.897C29.0666 32.9205 28.967 32.9439 28.8556 33.0494C28.6798 33.2253 28.6798 33.5535 28.8615 33.7469C28.9904 33.8818 29.0373 33.8935 29.5883 33.8935C30.3093 33.8935 30.4323 33.9228 30.4792 34.1103C30.532 34.3096 30.3913 35.5288 30.2975 35.7164C30.2506 35.7984 30.151 35.8922 30.0631 35.9332C29.8403 36.0329 16.1599 36.0329 15.9372 35.9332C15.7086 35.8277 15.6324 35.6343 15.5562 34.9075C15.4741 34.1631 15.4976 33.9814 15.6851 33.9286C15.7613 33.9111 18.4224 33.8935 21.5993 33.8935H27.3786L27.5075 33.7528C27.6834 33.5652 27.6892 33.2253 27.5192 33.0494L27.3903 32.9264L21.482 32.897C15.6734 32.8677 15.5679 32.8677 15.439 32.7505C15.2514 32.5805 15.1987 32.4047 15.269 32.1937C15.3979 31.8303 15.2455 31.842 19.9522 31.842H24.2369L24.3776 31.6955C24.5827 31.4962 24.5768 31.1504 24.3717 30.9569L24.2193 30.8163L19.8584 30.787C15.5972 30.7576 15.4976 30.7576 15.3862 30.6404C15.1928 30.4411 15.2045 30.1363 15.4097 29.9371L15.5503 29.7905H21.359C27.783 29.7905 27.5192 29.8081 27.6189 29.4271C27.6892 29.1809 27.5837 28.9055 27.3903 28.8117C27.2789 28.7531 25.8663 28.7355 21.1128 28.7355C15.6148 28.7355 14.9701 28.7238 14.888 28.6417C14.8353 28.5948 14.7942 28.5245 14.7942 28.4952C14.7942 28.3955 14.2139 23.4485 14.1788 23.2375L14.1436 23.0499H15.8082H17.4729L17.5022 23.4602Z" fill="white"/>
<path d="M20.4503 13.3435C19.6355 13.7245 19.319 14.6916 19.7528 15.4888C20.0282 15.9928 20.4971 16.2625 21.1009 16.2625C21.5405 16.2683 21.9039 16.1159 22.2028 15.8053C22.4959 15.5064 22.5428 15.3657 22.4548 15.0961C22.3259 14.6916 21.857 14.6213 21.5756 14.9554C21.2943 15.2895 21.054 15.3364 20.7785 15.1019C20.6437 14.9906 20.5968 14.9026 20.5968 14.762C20.5968 14.4806 20.7375 14.3282 21.095 14.2227C21.4584 14.1231 21.5932 13.9707 21.5932 13.6835C21.5932 13.2204 21.054 13.0622 20.4503 13.3435Z" fill="white"/>
<path d="M21.1947 20.5589C20.6378 20.805 20.2451 21.3912 20.2451 21.9949C20.2451 22.2469 20.2861 22.4111 20.421 22.6807C20.7082 23.2492 21.1478 23.5189 21.7984 23.5189C22.2731 23.5189 22.6131 23.3723 22.9413 23.0148C23.1289 22.8096 23.1758 22.7159 23.1758 22.5283C23.1758 22.2411 23.0293 22.0594 22.7596 22.0184C22.5721 21.9832 22.5193 22.0125 22.238 22.2587C21.9684 22.4931 21.9039 22.5283 21.7515 22.499C21.1243 22.3759 21.1536 21.5905 21.7925 21.485C22.238 21.4146 22.4373 20.9633 22.1735 20.6233C22.068 20.4885 22.0094 20.4709 21.7222 20.4709C21.5405 20.4768 21.3002 20.512 21.1947 20.5589Z" fill="white"/>
<path d="M29.7406 24.2105C29.6233 24.3043 29.594 24.4508 29.4358 25.7462C29.342 26.5374 29.2834 27.2408 29.301 27.3111C29.3889 27.6745 29.893 27.8094 30.145 27.5397C30.2622 27.4108 30.2974 27.2408 30.4498 25.9747C30.6315 24.4625 30.6256 24.2925 30.3795 24.1636C30.2095 24.0698 29.8812 24.0991 29.7406 24.2105Z" fill="white"/>
<path d="M25.8956 30.869C25.6729 30.9686 25.5439 31.2734 25.6319 31.5079C25.7432 31.7892 25.8956 31.842 26.6517 31.842C27.3082 31.842 27.3492 31.8361 27.4841 31.6954C27.7009 31.4844 27.7009 31.1914 27.4782 30.9628C27.3492 30.828 27.2906 30.8162 26.7045 30.7987C26.259 30.7869 26.0246 30.8104 25.8956 30.869Z" fill="white"/>
</svg>
