<svg width="46" height="46" viewBox="0 0 46 46" fill="none" xmlns="http://www.w3.org/2000/svg">
<path fill-rule="evenodd" clip-rule="evenodd" d="M24.4915 7.711C22.2223 8.28549 20.3646 10.2149 19.5038 12.8913C19.2929 13.5469 19.3518 13.4992 18.631 13.5969C12.2861 14.4555 11.3717 23.1716 17.3455 25.8498L17.9868 26.1374L17.9525 26.4943C17.8997 27.0416 18.1267 27.2348 18.8224 27.2348C19.335 27.2348 19.3446 27.2385 19.502 27.4928C19.5899 27.6347 20.029 28.0915 20.4778 28.5081C21.7574 29.6958 21.8557 30.039 21.4458 31.8918C21.0233 33.802 21.4971 35.077 23.1697 36.5305C24.5492 37.7293 25.0658 37.8411 25.0658 36.941C25.0658 36.6163 25.0508 36.5965 24.128 35.7044C22.7504 34.3727 22.4901 33.9304 22.4901 32.9208C22.4901 32.2891 22.5567 32.115 22.8239 32.0481C24.0088 31.7512 24.8846 29.1638 24.3519 27.5329C24.1491 26.9117 24.0441 25.0989 24.2147 25.1637C25.4681 25.6399 26.0607 25.3313 25.9703 24.2494L25.9225 23.6776L26.2407 23.6269C32.0184 22.7064 35.3792 15.553 32.2611 10.8126C30.6812 8.41082 27.2063 7.02363 24.4915 7.711ZM27.5791 9.01988C34.8057 10.8888 33.5415 20.6949 25.8497 22.4333C24.8327 22.6631 24.6999 22.7905 24.7447 23.4934L24.7753 23.9726L24.4412 23.9269C24.007 23.8675 24.0123 23.8835 24.2806 23.4485C26.3363 20.1139 24.49 14.8205 20.9114 13.7891C20.4188 13.6471 20.4212 13.6894 20.8489 12.69C22.1805 9.57805 24.6115 8.25233 27.5791 9.01988ZM25.8124 9.24364C25.3385 9.37306 25.1632 9.57909 25.1928 9.97199C25.2566 10.8193 27.0442 10.593 27.0442 9.7375C27.0442 9.18008 26.6396 9.01787 25.8124 9.24364ZM23.7966 10.1377C22.5048 11.0233 21.3309 12.8382 21.7159 13.3543C22.1192 13.8949 22.4973 13.7535 22.9239 12.9027C23.2731 12.206 23.7658 11.6291 24.3565 11.2248C24.9981 10.7859 25.1145 10.3962 24.7149 10.0247C24.485 9.8109 24.227 9.84264 23.7966 10.1377ZM20.4371 14.9873C25.0775 16.1749 25.0345 23.5636 20.3784 25.0704C20.0231 25.1853 19.8509 25.4366 19.8912 25.7813L19.9218 26.0427H19.6008C19.2862 26.0427 19.2799 26.0377 19.2799 25.7919C19.2799 25.3942 19.0619 25.1977 18.3308 24.9367C15.8753 24.06 14.5018 22.3814 14.5018 20.2572C14.5018 16.6748 17.3051 14.1858 20.4371 14.9873ZM17.4881 15.854C15.7333 16.7232 14.4375 20.4543 15.8905 20.4543C16.1402 20.4543 16.4426 20.1408 16.4441 19.8801C16.4514 18.7264 17.1086 17.5073 17.9916 17.0099C18.9782 16.4542 18.4987 15.3534 17.4881 15.854ZM22.8927 25.18C22.8265 25.3521 23.0054 27.1625 23.1326 27.6074C23.4019 28.5502 23.4141 28.6413 23.3307 29.0891C23.1497 30.0606 22.84 30.4969 22.7702 29.8789C22.7021 29.2758 22.3041 28.6065 21.5763 27.8711C21.2114 27.5024 20.9505 27.1882 20.9965 27.1729C21.3284 27.0625 21.4319 26.6638 21.2619 26.1508C21.2192 26.0218 21.2713 25.9701 21.5976 25.8176C21.81 25.7182 22.1734 25.5112 22.405 25.3576C22.8656 25.052 22.9543 25.0197 22.8927 25.18Z" fill="white"/>
</svg>
