<svg width="46" height="46" viewBox="0 0 46 46" fill="none" xmlns="http://www.w3.org/2000/svg">
<path fill-rule="evenodd" clip-rule="evenodd" d="M13.6449 19.6614L13.6636 19.7293H10.4071L10.4029 19.7003C10.1323 19.7819 10 19.9937 10 20.3534C10 20.9776 12.863 36.134 13.0123 36.3104C13.1887 36.5411 31.2353 36.5682 31.3709 36.3511C31.4116 36.2697 32.1308 32.6061 32.9449 28.1962C34.0711 22.0902 34.3968 20.1228 34.2882 19.9192C34.2361 19.8345 34.1683 19.7717 34.0758 19.7293H33.2027L33.1729 19.6614H30.5297H29.0642L29.1049 18.983C29.1321 18.6166 29.2135 18.3045 29.2813 18.3045C29.3356 18.3045 29.797 17.9246 30.2854 17.4768C30.9096 16.8798 31.1674 16.5542 31.1674 16.3099C31.1674 15.9707 30.6111 15.3194 29.7834 14.6952C29.4849 14.451 29.417 14.3017 29.3899 13.6369C29.3492 12.9177 29.3899 12.8363 29.8512 12.3614C30.1226 12.09 30.4076 11.6829 30.4754 11.4794C30.991 10.1361 30.0955 8.79277 28.5622 8.58924C27.9516 8.50783 27.8837 8.45355 27.531 7.80224C27.056 6.92027 26.4454 6.49963 25.6177 6.49963C24.7086 6.49963 24.1252 6.866 23.6503 7.74797C23.2568 8.46712 23.2296 8.48069 22.4426 8.62995C22.0084 8.72493 21.5335 8.88775 21.3978 9.00987C21.1672 9.21341 21.1129 9.21341 20.6923 8.9963C20.1224 8.68422 17.7071 8.54853 17.395 8.80634C17.2458 8.92846 17.1915 9.28125 17.1915 10.1768C17.1915 11.2352 17.1644 11.398 16.9201 11.5201C16.7709 11.6015 16.4588 11.995 16.2281 12.4021C15.9296 12.9448 15.7261 13.1484 15.5225 13.1484C14.8848 13.1484 14.1249 13.474 13.7043 13.9082C12.9037 14.7631 12.9444 15.8757 13.8128 16.8662C14.3556 17.4768 14.3692 17.5175 14.3827 18.5759L14.4099 19.6614H13.6449ZM26.554 8.80634C26.3233 8.35857 26.0248 7.93793 25.8891 7.85652C25.8643 7.84521 25.8398 7.83391 25.8161 7.82298C25.6977 7.76833 25.5997 7.72309 25.577 7.7344C25.1971 7.80224 24.8986 8.11433 24.5458 8.7792C24.0709 9.67475 24.0166 9.70189 23.0125 9.83757C22.2527 9.94612 21.8049 10.2582 21.8049 10.7195C21.8049 10.8688 22.117 11.3301 22.4969 11.7372L23.2025 12.4699L23.0668 13.3112C22.9718 13.8675 22.9718 14.261 23.0532 14.451C23.1754 14.7088 23.2432 14.7224 23.7317 14.6274C24.0166 14.5595 24.3287 14.5324 24.4101 14.5867C24.478 14.6274 24.7901 14.5595 25.0886 14.4238L25.6313 14.1796L26.5133 14.6274L27.3953 15.0752L27.7481 14.8173C28.128 14.5324 28.128 14.5188 28.0466 12.9041C28.0194 12.3614 28.0737 12.2528 28.6436 11.6694C29.6477 10.6517 29.4442 10.0411 28.0466 9.824C27.0425 9.67475 26.9746 9.63404 26.554 8.80634ZM20.448 10.5567C20.448 10.4346 20.2988 10.2718 20.1088 10.1904C19.9324 10.109 19.4575 10.0004 19.0776 9.94613L18.372 9.85114L18.4534 10.2989C18.5077 10.5432 18.5484 10.8145 18.5484 10.8959C18.5484 10.9909 18.7926 11.1673 19.1047 11.303C19.4711 11.4658 19.7831 11.7508 20.0138 12.1307C20.1428 12.3371 20.2828 12.5545 20.3852 12.7136C20.4444 12.8055 20.491 12.878 20.5159 12.9177C20.6923 13.1891 21.8049 13.379 21.8049 13.1348C21.8049 13.0534 21.5607 12.7142 21.2757 12.4021C20.7872 11.8729 20.448 11.113 20.448 10.5567ZM19.2268 13.4197C18.9961 12.972 18.6976 12.5513 18.5619 12.4699C18.0192 12.185 17.7071 12.4157 17.1915 13.4197C16.7709 14.2474 16.703 14.2882 15.6989 14.4374C14.2878 14.6545 14.0978 15.2651 15.1155 16.2963C15.7125 16.8934 15.7532 17.0019 15.7125 17.5311C15.6039 19.0237 15.6175 19.1458 15.9974 19.4308L16.3638 19.7021L17.1779 19.2679C18.1006 18.793 18.2092 18.7794 18.7248 19.0373C18.9014 19.1354 18.9929 19.1862 19.0402 19.1593C19.0911 19.1304 19.0911 19.0118 19.0911 18.7659C19.0911 18.5081 19.1861 18.1146 19.2947 17.911C19.5253 17.4497 20.2445 16.812 20.5294 16.812C20.8687 16.812 21.9406 15.7265 21.9406 15.3737C21.9406 14.8852 21.52 14.5595 20.7737 14.451C19.7153 14.3017 19.6475 14.261 19.2268 13.4197ZM29.607 16.2692L29.2813 15.9978C28.9014 15.6722 28.9014 15.6722 28.3858 16.0114C27.938 16.2963 27.1782 16.3506 26.6354 16.1335C26.4319 16.0657 26.2826 16.0521 26.2826 16.1335C26.2826 16.3913 26.7033 16.6356 27.2867 16.717C27.6395 16.7713 28.0601 16.9069 28.2365 17.0291C28.5622 17.2326 28.5893 17.219 29.0914 16.7577L29.607 16.2692ZM25.2514 17.0426C25.0479 16.6491 24.8036 16.2285 24.6815 16.0928C24.4644 15.8486 24.0302 15.7943 23.7452 15.9707C23.6638 16.025 23.3789 16.432 23.1347 16.8798C22.6597 17.7211 22.5648 17.7754 21.3707 17.9653C20.2581 18.1417 20.1359 18.888 21.0722 19.7971L21.6964 20.4077L21.6149 21.4796C21.5335 22.3752 21.5607 22.5923 21.7506 22.7958C22.0627 23.1486 22.5783 23.1079 23.2296 22.7144C23.9081 22.2938 24.2202 22.2938 25.0614 22.7144C25.8756 23.1215 26.2012 23.135 26.5676 22.7687C26.7847 22.5516 26.8254 22.3752 26.7711 22.0631C26.6064 21.1379 26.5279 20.7836 26.6375 20.5027C26.7176 20.2975 26.8981 20.1315 27.2189 19.8107C27.5988 19.4308 27.9109 19.0101 27.9109 18.8744C27.9109 18.4131 27.5174 18.0603 26.9339 17.9653C25.6186 17.7774 25.6176 17.7754 25.2632 17.0663L25.2514 17.0426ZM20.3666 20.9505L19.7289 20.8555C19.3761 20.8148 18.8876 20.6384 18.6434 20.4891C18.2634 20.2585 18.1413 20.2449 17.9649 20.3806C17.6528 20.6112 17.3272 21.4661 17.3272 22.036C17.3272 22.4973 17.3407 22.5109 17.8428 22.5109C18.5484 22.4973 19.3489 22.1038 19.8917 21.4796L20.3666 20.9505ZM16.2417 23.5964C15.9567 23.3114 15.9432 23.2165 16.011 22.0902L16.106 20.8826H13.7179C11.384 20.8826 11.3297 20.8826 11.3976 21.154C11.4383 21.3033 11.7368 22.8637 12.0489 24.6141L12.6324 27.8027H18.277H23.9081L24.1387 27.3957C24.4508 26.8393 25.1293 26.5815 26.2148 26.5815C27.3003 26.5815 27.9787 26.8393 28.2908 27.3957L28.5215 27.8027H30.1226C30.991 27.8027 31.7102 27.762 31.7102 27.7213C31.7102 27.6806 31.9815 26.1745 32.3208 24.3834C32.66 22.5787 32.9314 21.059 32.9314 20.9912C32.9314 20.9369 31.8051 20.8826 30.4347 20.8826H27.938L28.0059 21.8596C28.0873 23.1079 27.8295 23.6642 26.9611 24.0984C26.2012 24.4919 25.7127 24.4919 24.8308 24.0713L24.1116 23.7456L23.3518 24.0984C22.3748 24.5462 21.6149 24.4512 20.9501 23.8271C20.6923 23.5828 20.4616 23.3114 20.4344 23.2165C20.3937 23.0808 20.1902 23.1215 19.6203 23.3793C19.1047 23.6235 18.5212 23.7592 17.7071 23.8135C16.6216 23.8949 16.5266 23.8813 16.2417 23.5964ZM27.0968 31.0593C27.3817 30.8829 27.4631 28.5219 27.2053 28.1555C26.9882 27.8706 25.9705 27.7349 25.5092 27.9384C25.1428 28.0877 25.0072 28.6983 25.0886 29.9873C25.1157 30.6251 25.1971 30.9778 25.3328 31.0593C25.5906 31.2357 26.8389 31.2221 27.0968 31.0593ZM23.8402 30.1094V29.5667V29.0239H18.3448H12.8495L12.9309 29.3903C12.9716 29.6074 13.0259 29.8516 13.0666 29.933C13.1073 30.0687 14.3013 30.1094 18.4805 30.1094H23.8402ZM31.3031 29.8652C31.3031 29.7431 31.3438 29.4988 31.3845 29.3224C31.4659 29.0239 31.4524 29.0239 30.0276 29.0239H28.5893V29.5667V30.1094H29.9462C31.1538 30.1094 31.3031 30.0823 31.3031 29.8652ZM23.786 32.579C24.193 31.9684 24.2337 31.8463 24.0845 31.602C23.9216 31.3442 23.7724 31.3306 18.6027 31.3306H13.2837L13.4872 32.3754C13.4982 32.4346 13.5098 32.4968 13.5218 32.5612C13.628 33.1312 13.7668 33.8769 13.84 34.3158L14.0028 35.1978L22.1577 35.2385L30.3126 35.2656L30.6111 33.5695C30.6427 33.4015 30.674 33.2352 30.7041 33.0746C30.842 32.3403 30.9576 31.7245 30.991 31.602C31.0589 31.3442 30.991 31.3306 29.797 31.3306C28.6572 31.3306 28.4943 31.3578 28.3451 31.602C28.1958 31.8463 28.2365 31.9684 28.6436 32.579L29.1185 33.2846L28.6572 33.5966C28.3994 33.773 28.1416 33.9087 28.0737 33.9087C27.9923 33.9087 27.7481 33.5966 27.5038 33.2303L27.0696 32.5518H26.2148H25.3599L24.9257 33.2303C24.6815 33.5966 24.4373 33.9087 24.3558 33.9087C24.288 33.9087 24.0302 33.773 23.7724 33.5966L23.311 33.2846L23.786 32.579Z" fill="white"/>
<path d="M24.8036 9.9868C23.5145 10.6245 23.5281 12.5785 24.8307 13.1891C25.5363 13.5283 25.6041 13.4876 25.6041 12.7956C25.6041 12.3206 25.5363 12.1171 25.3056 11.9271C25.0478 11.7236 25.0207 11.6286 25.1428 11.4251C25.3599 11.0723 25.8212 11.0452 26.0112 11.3708C26.1198 11.5879 26.2826 11.6558 26.7575 11.6558C27.2867 11.6558 27.3681 11.6151 27.3681 11.3708C27.3681 10.9095 26.866 10.2175 26.364 9.97323C25.7805 9.70186 25.387 9.70186 24.8036 9.9868Z" fill="white"/>
<path d="M17.7613 14.4645C17.3271 14.5459 16.5673 15.3465 16.4723 15.835C16.3094 16.6355 16.7301 17.4497 17.4899 17.8432C18.1412 18.1824 18.2769 18.101 18.2769 17.3818C18.2769 16.8933 18.2091 16.7034 18.0056 16.5677C17.6799 16.3777 17.6528 16.0928 17.9377 15.8621C18.1684 15.6721 18.684 15.8078 18.684 16.0792C18.684 16.2149 18.8604 16.2692 19.3624 16.2692C20.1494 16.2692 20.2173 16.0928 19.7695 15.3601C19.3489 14.6545 18.5619 14.3153 17.7613 14.4645Z" fill="white"/>
<path d="M23.3384 18.1146C22.7549 18.4131 22.28 19.3493 22.4021 20.0006C22.5242 20.6112 23.2705 21.3711 23.8268 21.4525C24.2475 21.5204 24.2475 21.5068 24.2475 20.8962C24.2475 20.4077 24.1796 20.2313 23.9625 20.0956C23.5555 19.8378 23.664 19.3358 24.1525 19.2815C24.451 19.2408 24.5596 19.2951 24.6138 19.5122C24.6681 19.7564 24.7902 19.7971 25.3465 19.7971C26.1064 19.7971 26.1878 19.6343 25.7672 18.8609C25.3058 18.006 24.2339 17.6804 23.3384 18.1146Z" fill="white"/>
</svg>
