<svg width="46" height="46" viewBox="0 0 46 46" fill="none" xmlns="http://www.w3.org/2000/svg">
<path d="M20.9148 11.7246C20.7048 11.8446 20.4348 11.9946 20.3148 12.0546C20.1948 12.1146 19.9548 12.2796 19.8048 12.4296C19.6248 12.5946 19.4598 12.6396 19.3548 12.5646C19.2648 12.4896 18.8598 12.3396 18.4698 12.2346C17.9148 12.0996 17.6148 12.0996 17.0898 12.2496C16.7148 12.3546 16.4148 12.5046 16.4148 12.5646C16.4148 12.6396 16.3098 12.6996 16.1898 12.6996C16.0698 12.6996 15.7998 13.0746 15.5748 13.5396C15.2598 14.2146 15.1998 14.4996 15.2898 15.0396C15.3648 15.6246 15.3498 15.6996 15.0948 15.6996C14.2398 15.6996 14.2998 16.2846 15.5148 21.0246C15.9798 22.7946 16.2348 23.8746 16.5798 25.4346L16.7448 26.2296L13.8798 29.1096C10.7298 32.2596 10.6998 32.3046 11.3298 33.3846C11.7648 34.1046 12.4248 34.7046 13.2948 35.1396C13.6848 35.3346 14.0448 35.4996 14.1048 35.4996C14.1498 35.4996 15.4098 34.2846 16.8948 32.7996C18.3948 31.3146 19.6398 30.1296 19.6848 30.1596C19.7148 30.2046 19.6698 30.5346 19.5798 30.9096C19.4898 31.2846 19.4148 32.1096 19.4148 32.7546C19.4148 33.8046 19.4598 34.0146 19.8498 34.6296C20.2848 35.3046 20.7498 35.6196 21.0648 35.4246C21.3048 35.2746 21.2448 34.3446 21.0048 34.2546C20.6598 34.1196 20.4348 33.0246 20.5398 32.0796C20.7048 30.6096 20.7348 30.5946 21.2598 31.4196C21.8598 32.3346 22.1148 32.7696 22.3548 33.2496C22.6698 33.8646 23.6598 34.8096 24.2148 35.0346C24.4998 35.1396 25.1148 35.2896 25.5648 35.3496C26.2848 35.4546 26.4198 35.4246 26.6448 35.1696C27.0648 34.6896 26.7648 34.2996 25.9548 34.2996C24.7848 34.2996 23.7948 33.5496 22.9548 32.0496C22.8498 31.8396 22.6548 31.5096 22.5498 31.2996C22.4298 31.0896 22.1898 30.7146 22.0098 30.4596L21.6798 29.9946L22.3098 30.0996C22.9398 30.2196 24.0498 30.4746 26.0898 30.9996C29.9748 31.9896 30.3198 32.0496 30.4698 31.6596C30.5298 31.4946 30.7248 31.2546 30.9048 31.1196C31.2948 30.8046 31.8648 29.7696 31.9998 29.1396C32.0748 28.7796 32.2248 28.6446 32.7798 28.4646C33.6198 28.1646 34.2498 27.6846 34.6698 26.9796C35.1048 26.2746 35.1048 25.9146 34.6398 25.0146C34.3848 24.4896 34.0548 24.1296 33.5148 23.7846C32.8848 23.3796 32.7648 23.2296 32.7648 22.8396C32.7648 22.5846 32.7198 22.2246 32.6748 22.0296C32.6148 21.8046 32.6448 21.6996 32.7798 21.6996C32.8998 21.6996 33.1698 21.4596 33.4098 21.1896C33.7398 20.7546 33.8148 20.5146 33.8148 19.8246C33.8148 18.9546 33.6198 18.5346 32.8548 17.6796C32.5848 17.3646 32.5398 17.1696 32.5848 16.0896C32.6298 15.0546 32.5998 14.7846 32.3148 14.3196C31.8348 13.4946 31.4298 13.2996 30.2598 13.2996C29.4948 13.2996 29.1198 13.3746 28.7298 13.6146C28.2798 13.8846 28.2048 13.8996 27.9798 13.6896C27.3048 13.0746 25.5348 12.8196 24.8148 13.2246C24.2898 13.5246 24.2148 13.5096 24.2148 13.0596C24.2148 12.8046 24.0048 12.4596 23.6298 12.0846C23.0898 11.5296 22.9998 11.4996 22.1748 11.4996C21.6798 11.4996 21.1248 11.6046 20.9148 11.7246ZM22.6098 12.6846C23.0748 12.8646 23.3898 14.0346 23.2698 15.1746L23.1948 15.9546L23.7798 16.1496C24.4248 16.3746 25.4148 17.3346 25.4148 17.7696C25.4148 18.1146 25.0548 18.6096 24.5448 18.9846L24.1248 19.2696L23.5248 18.6996C23.1948 18.3846 22.7898 18.1146 22.6398 18.0846C22.4148 18.0396 22.3548 17.8896 22.3398 17.3196C22.3398 16.8846 22.2348 16.5096 22.0698 16.3296C21.9348 16.1796 21.8148 15.9846 21.8148 15.9096C21.8148 15.7146 20.7048 15.2496 20.2398 15.2496C19.7448 15.2496 18.8448 15.7146 18.7248 16.0296C18.6198 16.3746 18.3198 16.3746 17.4198 16.0296C16.5498 15.6996 16.4148 15.5196 16.4148 14.7396C16.4148 13.4646 17.6448 12.9246 18.9648 13.5996C19.2948 13.7646 19.6248 13.8996 19.7148 13.8996C19.8048 13.8996 20.1948 13.6296 20.5848 13.3146C21.4698 12.5796 21.9498 12.4296 22.6098 12.6846ZM26.8098 14.3646C27.1548 14.5446 27.5448 14.8146 27.6798 14.9946L27.9198 15.2946L28.6248 14.9046C29.5698 14.3796 30.5448 14.2446 31.0398 14.5596C31.3848 14.7846 31.4148 14.9046 31.4148 15.8196C31.4148 16.4196 31.3248 17.0046 31.1898 17.2596C30.8898 17.8296 30.9048 18.0996 31.2498 18.0996C31.6998 18.0996 32.0148 18.2646 32.0148 18.4896C32.0148 18.6096 32.0898 18.6996 32.1798 18.6996C32.4198 18.6996 32.7798 19.7196 32.6748 20.1246C32.5248 20.7246 31.7448 21.0996 30.6348 21.0996C29.6748 21.0996 29.6448 21.1146 29.5698 21.5346C29.5248 21.7746 29.3748 22.0746 29.2398 22.1946C29.1198 22.3296 29.0148 22.4946 29.0148 22.5546C29.0148 22.6296 28.8048 22.8846 28.5498 23.1396C28.1748 23.4846 28.0548 23.5296 27.9948 23.3496C27.8748 23.0346 26.4498 21.6996 26.2098 21.6996C26.1048 21.6996 26.0148 21.5346 26.0148 21.3246C26.0148 20.9796 25.9548 20.9496 25.4148 20.9496C24.9198 20.9496 24.8148 20.9046 24.8148 20.6496C24.8148 20.4846 24.7998 20.3046 24.7998 20.2296C24.7848 20.1696 24.9198 20.0496 25.0998 19.9596C25.2648 19.8696 25.5348 19.6896 25.6848 19.5396C25.9548 19.2996 25.9998 19.3296 26.5698 19.8996C27.0948 20.4246 27.2748 20.4996 27.8448 20.4996C28.9698 20.4996 29.9148 19.5696 29.9148 18.4596C29.9148 17.8746 29.4948 16.8996 29.2248 16.8996C29.1198 16.8996 29.0148 16.8246 28.9848 16.7346C28.9548 16.6446 28.5798 16.5246 28.1598 16.4946C27.5448 16.4346 27.2748 16.4796 26.8548 16.7346L26.3298 17.0646L26.1048 16.6296C25.9698 16.3746 25.6098 15.9696 25.2798 15.7146C24.6348 15.2046 24.6048 14.7996 25.1748 14.3196C25.5948 13.9746 26.0448 13.9896 26.8098 14.3646ZM20.8698 16.6296C21.0648 16.8096 21.2148 17.0946 21.2148 17.2596C21.2148 17.5446 21.1398 17.5746 20.5098 17.5446C20.1048 17.5296 19.7448 17.5146 19.6998 17.5146C19.4148 17.4846 19.4448 16.9746 19.7298 16.6446C20.1498 16.2096 20.4198 16.2096 20.8698 16.6296ZM17.7498 17.3646C18.3498 17.6646 18.7548 17.9796 18.8898 18.2646C19.1148 18.6846 19.1598 18.6996 20.2098 18.6996C21.4398 18.6996 22.4748 19.1346 23.1948 19.9446C23.5698 20.3796 23.6598 20.6046 23.8848 21.6996C23.9898 22.1646 24.0498 22.2246 24.6048 22.3146C25.7448 22.5096 26.8248 23.4396 27.4098 24.7296C27.7098 25.3746 27.7248 25.7796 27.4848 26.4696C27.3048 26.9496 27.3198 26.9946 27.7398 27.3396C28.8198 28.2396 29.0298 28.4796 29.2998 29.2896C29.6148 30.2196 29.5698 30.7446 29.1798 30.6396C28.4448 30.4296 27.2148 30.1146 26.6898 29.9796C25.7898 29.7696 24.7248 29.4996 23.4648 29.1996C22.8498 29.0496 21.8598 28.8096 21.2748 28.6746C20.2548 28.4346 20.1648 28.3746 19.0398 27.2496C17.9748 26.1846 17.8548 25.9896 17.6748 25.1946C17.4648 24.1746 17.0898 22.6446 16.7148 21.1746C16.0698 18.6996 15.9048 17.9946 15.8448 17.4546C15.7848 16.9146 15.7848 16.8996 16.2948 16.8996C16.5798 16.8996 17.2398 17.1096 17.7498 17.3646ZM28.5198 17.8296C28.9248 18.2046 28.9548 18.5046 28.6248 18.9696C28.3248 19.4046 27.4398 19.4346 27.2148 19.0146C27.0048 18.5946 27.0198 18.2196 27.3048 17.8296C27.5898 17.4096 28.0698 17.4096 28.5198 17.8296ZM31.6098 23.2146C31.5798 24.0396 31.5948 24.0546 32.1048 24.2346C32.3898 24.3396 32.6148 24.4896 32.6148 24.5646C32.6148 24.6396 32.6898 24.6996 32.7948 24.6996C33.0798 24.6996 33.8148 25.6296 33.8148 26.0046C33.8148 26.1846 33.6948 26.4846 33.5598 26.6646C33.2448 27.0246 31.8948 27.6996 31.4598 27.6996C31.2198 27.6996 31.1298 27.8646 30.9648 28.5546C30.7698 29.4246 30.5148 29.9346 30.5148 29.4696C30.5148 29.1246 29.8998 27.6996 29.7498 27.6996C29.4948 27.6996 29.6148 27.2196 29.8998 27.1446C30.0498 27.1146 30.3198 26.7846 30.4998 26.4246C30.9348 25.5546 30.8148 24.8496 30.1098 24.1596C29.6298 23.6796 29.6148 23.6346 29.8548 23.3946C29.9898 23.2596 30.1698 22.9446 30.2448 22.7196C30.3798 22.3296 30.4548 22.2846 31.0248 22.3296L31.6398 22.3746L31.6098 23.2146ZM29.3448 24.9546C29.7048 25.2846 29.6898 25.7346 29.2848 26.1546C28.7598 26.7096 28.6398 26.5896 28.6848 25.5996C28.7448 24.6546 28.8798 24.5196 29.3448 24.9546ZM18.2148 27.9996C18.6348 28.4196 18.9648 28.8246 18.9648 28.8996C18.9648 28.9896 17.8098 30.2046 16.3998 31.6146L13.8498 34.1646L13.4448 33.9096C12.9498 33.5946 12.2148 32.7996 12.2148 32.5896C12.2148 32.4546 17.2998 27.2496 17.4348 27.2496C17.4498 27.2496 17.8098 27.5946 18.2148 27.9996Z" fill="white"/>
</svg>
