<svg width="46" height="46" viewBox="0 0 46 46" fill="none" xmlns="http://www.w3.org/2000/svg">
<path d="M17.1377 8.06872C16.4455 8.26474 15.1713 8.88955 14.3199 9.45005C12.3842 10.7242 10.3229 12.8437 9.21412 14.6967C8.63219 15.6737 7.99512 17.1408 7.99512 17.5114C7.99512 17.5911 8.09006 17.7656 8.22177 17.931C8.26465 17.9862 8.37491 17.9892 10.8129 18.0107C12.2126 18.0229 13.3643 18.0413 13.3734 18.0505C13.3826 18.0566 13.3398 18.2588 13.2785 18.4977C13.0855 19.2634 13.0427 19.5819 13.0273 20.3262C13.0028 21.3338 13.0947 21.974 13.3888 22.8683C13.6675 23.7167 14.1055 24.5069 14.7027 25.2359C15.1039 25.7259 16.4945 27.1532 18.4118 29.0399C20.8223 31.4105 20.8559 31.4412 21.5267 31.8638C22.176 32.2712 23.1561 32.6724 23.8912 32.8317C24.9448 33.0553 26.1056 33.0522 27.1684 32.8164C29.1501 32.3753 30.9204 31.0889 31.9679 29.3248L32.1762 28.9756L33.7076 28.9787C35.3309 28.9817 36.8623 29.0093 36.8899 29.0399C36.9358 29.0828 36.5376 30.2804 36.2589 30.9358C36.118 31.2727 35.7076 32.1211 35.6463 32.2008C35.6096 32.2498 35.5453 32.2161 34.8163 31.7536C33.8913 31.1625 33.6739 31.0491 33.4871 31.0522C33.2145 31.0553 33.0491 31.2421 33.0491 31.5422C33.0491 31.6923 33.0583 31.7138 33.1808 31.8332C33.2512 31.9037 33.5024 32.0874 33.7382 32.2436C34.6601 32.847 34.8745 32.9879 34.9572 33.0553L35.043 33.1257L34.9388 33.2727C34.6571 33.6709 33.8148 34.5163 33.3125 34.9083C33.1655 35.0216 33.1655 35.0216 33.1134 34.9604C33.0858 34.9267 32.9541 34.6939 32.8194 34.4489C32.4304 33.7322 32.2374 33.5086 32.0046 33.5086C31.8638 33.5086 31.6402 33.674 31.5667 33.8302C31.487 33.9986 31.5299 34.1242 31.9342 34.9083L32.2864 35.5882L32.1547 35.6709C31.7229 35.9466 29.8025 36.7154 29.1868 36.8593L29.0153 36.8991L28.9939 35.4106C28.9816 34.5928 28.9602 33.8731 28.9449 33.8118C28.8989 33.6464 28.706 33.527 28.4946 33.5331C28.3507 33.5392 28.1577 33.6495 28.0995 33.7567C28.0107 33.9282 27.9893 34.5438 28.0107 36.1824L28.0322 37.7414L28.1271 37.8302C28.317 37.9987 28.4028 38.0232 28.6968 37.9834C29.2849 37.9037 30.2098 37.6312 31.0889 37.2851C33.5881 36.2958 35.435 34.6847 36.6816 32.3998C37.2635 31.334 37.8577 29.6433 37.9864 28.6969C38.0262 28.3937 38.0109 28.3293 37.8485 28.1394L37.7505 28.0261L35.1992 27.9986C33.7964 27.9863 32.6448 27.9679 32.6386 27.9618C32.6325 27.9557 32.6785 27.7413 32.7428 27.4901C32.9572 26.6478 33.0399 25.9097 33.0031 25.2083C32.9235 23.6371 32.4212 22.2221 31.5146 21.0122C31.2052 20.5988 29.6953 19.0367 27.3645 16.7243C25.5482 14.9203 25.1378 14.5558 24.3904 14.0841C23.6339 13.6094 22.6324 13.2388 21.6921 13.0918C21.2664 13.0274 20.2863 13.0029 19.787 13.0458C18.1392 13.1898 16.5128 13.934 15.3122 15.0918C14.7732 15.6125 14.3811 16.1117 13.9676 16.81L13.8359 17.0367L11.597 17.0244C9.16206 17.0122 9.19575 17.0152 9.23556 16.8529C9.30907 16.5589 9.94308 15.4103 10.4484 14.6569C10.6935 14.2893 10.7976 14.1699 10.8527 14.2005C10.8711 14.2128 11.2142 14.4333 11.6093 14.6875C13.0182 15.5941 13.0182 15.5941 13.303 15.346C13.5664 15.1132 13.5725 14.9111 13.3153 14.6691C13.2295 14.5864 12.8895 14.3353 12.5618 14.1147C11.7992 13.6032 11.4561 13.3552 11.4561 13.3184C11.4561 13.3031 11.8696 12.8743 12.375 12.3659L13.2938 11.4409L13.3704 11.5236C13.4102 11.5695 13.5205 11.7502 13.6185 11.9218C14.0963 12.7763 14.1912 12.911 14.3689 12.957C14.617 13.0244 14.8804 12.8865 14.9508 12.6538C15.0029 12.4792 14.9294 12.2709 14.5741 11.5818C14.4056 11.2571 14.2494 10.9355 14.228 10.8712L14.1851 10.7518L14.5741 10.4945C15.4684 9.90335 16.7211 9.2234 16.911 9.22034C16.9386 9.22034 16.9723 9.24484 16.9876 9.27241C16.9998 9.30304 17.0182 9.97073 17.0274 10.7579C17.0458 12.1484 17.0488 12.1882 17.1101 12.274C17.3061 12.5374 17.7012 12.5435 17.8911 12.2832C17.9953 12.1423 18.0106 11.8513 18.0106 10.0442V8.27699L17.8758 8.16673C17.6369 7.97377 17.5297 7.95845 17.1377 8.06872ZM21.4532 14.0749C22.3016 14.1852 23.3123 14.568 24.0597 15.0612C24.4578 15.3246 24.8254 15.6676 26.5681 17.3981C29.1593 19.9709 30.7213 21.6034 31 22.023C31.3706 22.5835 31.7167 23.4502 31.8668 24.1976C32.1608 25.6647 31.9924 27.0062 31.3492 28.3171C30.9847 29.0644 30.5559 29.6617 29.9954 30.2038C29.7198 30.4703 29.098 30.9664 29.0398 30.9664C29.0245 30.9664 29.0031 28.559 28.9908 25.6157C28.9694 20.3017 28.9694 20.2618 28.9081 20.1945C28.6845 19.9525 28.2925 19.977 28.0965 20.2435L28.0291 20.3323L28.0046 25.9311L27.9801 31.5269L27.7504 31.6127C26.6508 32.0384 25.0704 32.1119 23.879 31.7965L23.5696 31.7138L23.5512 27.5943C23.542 25.3308 23.5298 21.83 23.5237 19.8177C23.5206 17.8055 23.5084 16.0658 23.4961 15.9524C23.4777 15.7625 23.4716 15.7442 23.3583 15.6553C23.1041 15.4532 22.8774 15.4593 22.6385 15.6768L22.5129 15.7901L22.4884 23.5268L22.467 31.2635L22.1913 31.0981C22.0413 31.0032 21.7993 30.8378 21.6553 30.7245C21.4195 30.5407 19.4899 28.6754 18.4332 27.6065L18.0136 27.1838L18.0044 21.7933C17.9953 16.4731 17.9953 16.3996 17.934 16.2832C17.9003 16.2158 17.8391 16.1362 17.7962 16.1056C17.6216 15.98 17.3276 16.0106 17.1377 16.176L17.0305 16.271L17.0274 21.2389V26.2037L16.3658 25.5299C15.3337 24.4763 14.9937 24.0352 14.6445 23.3063C13.5633 21.0429 13.8788 18.418 15.4684 16.418C15.7257 16.0964 16.2954 15.539 16.6017 15.3092C17.5665 14.5864 18.6721 14.1515 19.8483 14.032C20.2158 13.9953 20.9968 14.0167 21.4532 14.0749Z" fill="white"/>
</svg>
