<svg width="24" height="24" viewBox="0 0 24 24" fill="none" xmlns="http://www.w3.org/2000/svg">
<path fill-rule="evenodd" clip-rule="evenodd" d="M3.4 5C3.17909 5 3 5.17909 3 5.4V6.6C3 6.82091 3.17909 7 3.4 7H4.6C4.82091 7 5 6.82091 5 6.6V5.4C5 5.17909 4.82091 5 4.6 5H3.4ZM7.4 5C7.17909 5 7 5.17909 7 5.4V6.6C7 6.82091 7.17909 7 7.4 7H20.6C20.8209 7 21 6.82091 21 6.6V5.4C21 5.17909 20.8209 5 20.6 5H7.4ZM7.4 11C7.17909 11 7 11.1791 7 11.4V12.6C7 12.8209 7.17909 13 7.4 13H20.6C20.8209 13 21 12.8209 21 12.6V11.4C21 11.1791 20.8209 11 20.6 11H7.4ZM7 17.4C7 17.1791 7.17909 17 7.4 17H20.6C20.8209 17 21 17.1791 21 17.4V18.6C21 18.8209 20.8209 19 20.6 19H7.4C7.17909 19 7 18.8209 7 18.6V17.4ZM3 11.4C3 11.1791 3.17909 11 3.4 11H4.6C4.82091 11 5 11.1791 5 11.4V12.6C5 12.8209 4.82091 13 4.6 13H3.4C3.17909 13 3 12.8209 3 12.6V11.4ZM3.4 17C3.17909 17 3 17.1791 3 17.4V18.6C3 18.8209 3.17909 19 3.4 19H4.6C4.82091 19 5 18.8209 5 18.6V17.4C5 17.1791 4.82091 17 4.6 17H3.4Z" fill="black"/>
</svg>
