<svg width="47" height="47" viewBox="0 0 47 47" fill="none" xmlns="http://www.w3.org/2000/svg">
<path d="M38.7945 46.2692H8.05434C4.21182 46.2692 3.20013 45.7064 2.07549 44.5806C0.950844 43.4549 0.369299 42.4267 0.388523 38.5842V7.844C0.388523 4.00148 0.950844 2.9733 2.07549 1.84756C3.20013 0.721821 4.21182 0.158951 8.05434 0.158951H38.7945C40.384 0.158951 42.6628 0.182854 44.5583 2.08021C46.4538 3.97757 46.4538 6.25295 46.4538 7.844V38.5842C46.4796 42.4267 45.8915 43.4549 44.7669 44.5806C43.6422 45.7064 42.6371 46.2692 38.7945 46.2692ZM14.7839 17.4503V13.1275C14.7839 12.3169 14.5365 11.5214 14.0417 10.7409C13.5468 9.96039 12.9995 9.40503 12.3997 9.07481C11.7999 8.74459 11.335 8.72958 11.0051 9.02978L7.72119 12.362C6.82147 13.2626 6.31164 14.4709 6.19167 15.9868C6.07171 17.5028 6.30414 19.1539 6.88895 20.9401C7.47376 22.7263 8.41097 24.6175 9.70055 26.6138C10.9901 28.6101 12.5347 30.5089 14.3341 32.3101C16.1335 34.1113 18.0304 35.6573 20.0248 36.9481C22.0191 38.239 23.9085 39.1846 25.693 39.785C27.4774 40.3854 29.1269 40.6255 30.6414 40.5055C32.1559 40.3854 33.363 39.875 34.2627 38.9745L37.5917 35.6423C37.8916 35.3421 37.8766 34.8843 37.5467 34.2689C37.2168 33.6535 36.662 33.0981 35.8822 32.6028C35.1025 32.1074 34.3077 31.8598 33.498 31.8598H29.1793L26.2553 33.661C24.9057 33.3007 23.2412 32.3251 21.2619 30.734C19.2825 29.143 17.4981 27.3568 15.9086 25.3755C14.3191 23.3942 13.3444 21.7281 12.9845 20.3772L14.7839 17.4503ZM31.9685 24.655L34.8925 25.1504C34.6526 21.548 33.258 18.471 30.7089 15.9193C28.1597 13.3676 25.1006 11.9717 21.5318 11.7316L21.9816 14.6585C24.5908 14.9887 26.8251 16.0844 28.6845 17.9456C30.5439 19.8069 31.6386 22.0433 31.9685 24.655ZM22.5215 17.6755L23.0613 20.9176C24.2309 21.488 25.1156 22.3735 25.7154 23.5743L28.9544 24.1147C28.5645 22.5236 27.7923 21.1502 26.6377 19.9945C25.483 18.8387 24.111 18.0657 22.5215 17.6755ZM20.5421 5.92274L21.0369 8.84966C24.036 8.9097 26.8026 9.69772 29.3368 11.2137C31.871 12.7297 33.8953 14.756 35.4099 17.2927C36.9244 19.8294 37.7116 22.5987 37.7716 25.6007L40.6957 26.096C40.6957 23.3642 40.1633 20.7525 39.0987 18.2608C38.034 15.7692 36.602 13.6228 34.8026 11.8216C33.0031 10.0204 30.8588 8.58699 28.3696 7.52129C25.8804 6.45559 23.2712 5.92274 20.5421 5.92274Z" fill="#9D81BA"/>
</svg>
