<svg width="47" height="47" viewBox="0 0.5 47 47" fill="none" xmlns="http://www.w3.org/2000/svg">
<path d="M46.7954 11.2867C46.776 10.2907 46.6962 9.29684 46.5562 8.31054C46.3895 7.43324 46.106 6.5822 45.7135 5.78008C44.8542 4.08374 43.4767 2.70539 41.7809 1.84509C40.9839 1.45441 40.1384 1.17178 39.2666 1.0047C38.2728 0.861884 37.2711 0.780477 36.2672 0.760939C35.8424 0.744688 35.2922 0.737723 35.0368 0.737723L12.1744 0.730759C11.9191 0.730759 11.3689 0.737723 10.944 0.753974C9.94804 0.773165 8.95413 0.853018 7.96784 0.993091C7.09054 1.15987 6.2395 1.44329 5.43738 1.8358C3.74114 2.69524 2.36283 4.07274 1.50239 5.76847C1.11181 6.56548 0.829194 7.411 0.662002 8.28268C0.518539 9.27649 0.436356 10.2782 0.41592 11.2821C0.401991 11.7069 0.392705 12.2571 0.392705 12.5125L0.388062 35.3749C0.388062 35.6302 0.395026 36.1804 0.411277 36.6053C0.430468 37.6013 0.510321 38.5952 0.650394 39.5815C0.817199 40.4588 1.10062 41.3098 1.49311 42.1119C2.35254 43.8082 3.73004 45.1865 5.42577 46.0469C6.22281 46.4375 7.06831 46.7201 7.93998 46.8873C8.93383 47.0302 9.93553 47.1116 10.9394 47.1311C11.3642 47.1473 11.9144 47.1543 12.1698 47.1543L35.0322 47.1589C35.2876 47.1589 35.8378 47.152 36.2626 47.1357C37.2586 47.1165 38.2525 47.0366 39.2388 46.8966C40.1161 46.7297 40.9671 46.4463 41.7693 46.0539C43.4664 45.1949 44.8455 43.8173 45.7066 42.1212C46.0972 41.3242 46.3798 40.4787 46.547 39.607C46.6905 38.6132 46.7727 37.6115 46.793 36.6076C46.807 36.1828 46.8163 35.6326 46.8163 35.3772L46.8186 12.5171C46.8186 12.2618 46.8116 11.7116 46.7954 11.2867ZM24.1071 40.0969H24.1001C21.3367 40.0963 18.6175 39.4035 16.1907 38.0818L7.41532 40.3824L9.7647 31.809C7.94568 28.6525 7.21885 24.984 7.69692 21.3723C8.17498 17.7607 9.83123 14.4076 12.4089 11.8331C14.9865 9.25849 18.3415 7.60624 21.9537 7.13247C25.566 6.6587 29.2336 7.38989 32.388 9.21267C35.5423 11.0354 38.0072 13.848 39.4005 17.2142C40.7937 20.5804 41.0375 24.3123 40.094 27.8311C39.1505 31.35 37.0725 34.4593 34.182 36.6769C31.2916 38.8946 27.7502 40.0967 24.1071 40.0969Z" fill="#9D81BA"/>
<path d="M24.114 9.78591C21.6557 9.78519 19.2421 10.4431 17.1242 11.6912C15.0063 12.9392 13.2615 14.7319 12.0711 16.8828C10.8807 19.0337 10.2883 21.4642 10.3555 23.9215C10.4226 26.3789 11.1469 28.7734 12.453 30.8561L12.7804 31.3761L11.3898 36.4509L16.5969 35.0859L17.0984 35.383C19.2182 36.6385 21.6365 37.3008 24.1001 37.3006H24.1071C27.7561 37.3012 31.2558 35.8523 33.8365 33.2725C36.4172 30.6927 37.8673 27.1934 37.8679 23.5444C37.8685 19.8954 36.4196 16.3957 33.8398 13.815C31.26 11.2343 27.7607 9.7842 24.1117 9.78358L24.114 9.78591ZM32.2022 29.4492C31.8979 29.9518 31.4929 30.3859 31.0127 30.7243C30.5325 31.0627 29.9874 31.2981 29.4118 31.4156C28.5427 31.5646 27.6508 31.509 26.807 31.2531C26.0068 31.0037 25.2202 30.7123 24.4507 30.3802C21.5946 28.9468 19.1601 26.7956 17.3863 24.1376C16.4186 22.9071 15.8312 21.4209 15.6962 19.8613C15.685 19.2176 15.8081 18.5786 16.0575 17.9851C16.3069 17.3915 16.6772 16.8564 17.1448 16.4139C17.283 16.2562 17.4523 16.1288 17.6421 16.0398C17.8318 15.9507 18.038 15.9018 18.2475 15.8962C18.5215 15.8962 18.7978 15.8962 19.0392 15.9101C19.2946 15.9217 19.6335 15.8126 19.9678 16.6205C20.316 17.4469 21.1425 19.4829 21.2446 19.6895C21.3102 19.7979 21.3477 19.9208 21.3538 20.0473C21.3599 20.1738 21.3343 20.2997 21.2795 20.4138C21.1753 20.6622 21.0362 20.8944 20.8662 21.1033C20.6573 21.3448 20.4321 21.6419 20.2464 21.8277C20.0374 22.0343 19.8239 22.2571 20.063 22.6704C20.684 23.7338 21.4594 24.6992 22.3636 25.5351C23.3448 26.4074 24.4706 27.1019 25.6904 27.5874C26.1036 27.7963 26.345 27.7592 26.5865 27.4829C26.8279 27.2066 27.6195 26.2757 27.8958 25.8625C28.1721 25.4492 28.446 25.5189 28.8244 25.6559C29.2028 25.7928 31.2388 26.7934 31.652 27.0023C32.0653 27.2113 32.3415 27.3111 32.4437 27.4829C32.5569 28.1479 32.473 28.8314 32.2022 29.4492Z" fill="#9D81BA"/>
</svg>
