<svg width="24" height="24" viewBox="-5.5 -5.5 24 24" fill="none" xmlns="http://www.w3.org/2000/svg">
<g clip-path="url(#clip0_33_9298)">
<path d="M12.3177 10.6554C12.0976 10.965 11.8259 11.2461 11.5598 11.5139C11.3263 11.7491 11.0714 11.9525 10.7813 12.1107C10.0973 12.4838 9.3082 12.5873 8.54396 12.5005C7.45183 12.3762 6.39639 11.9088 5.47373 11.3154C4.76221 10.858 4.08659 10.3106 3.49799 9.69651C2.51118 8.74855 1.65215 7.57953 1.1331 6.29501C0.67072 5.15073 0.446169 3.82184 0.964294 2.6543C1.29218 1.9153 1.91364 1.35539 2.538 0.877107C2.68446 0.755822 2.81961 0.612619 3.00445 0.5548C3.14605 0.510428 3.2933 0.526563 3.4291 0.583037C3.74463 0.714408 4.00849 1.0031 4.20978 1.27565C4.42079 1.56139 4.57474 1.88356 4.71541 2.21004C4.85779 2.54041 5.01898 2.87751 5.02161 3.24621C5.02371 3.53261 4.91472 3.74775 4.72277 3.94743C4.5257 4.15221 4.3206 4.34665 4.14851 4.57496C3.74884 5.10528 3.52942 5.76953 3.51338 6.43794C3.493 7.28855 3.84166 8.16404 4.42197 8.77235C5.4009 9.70552 6.99971 9.99071 8.20043 9.35094C8.47494 9.20465 8.71356 9.00335 8.92917 8.778C9.0872 8.61301 9.23089 8.41468 9.41771 8.28183C9.95188 7.90224 10.69 8.29272 11.1944 8.53973C11.5395 8.70875 11.869 8.91205 12.1532 9.17574C12.3883 9.39383 12.6908 9.7031 12.6652 10.0583C12.6478 10.3075 12.4659 10.4765 12.3177 10.6554Z" fill="#9D81BA"/>
</g>
<defs>
<clipPath id="clip0_33_9298">
<rect width="12" height="12" fill="white" transform="translate(0.666687 0.529297)"/>
</clipPath>
</defs>
</svg>
