<svg width="85" height="85" viewBox="0 -3.5 85 85" fill="none" xmlns="http://www.w3.org/2000/svg">
<path fill-rule="evenodd" clip-rule="evenodd" d="M9.27266 18.6022H7.47227C5.84269 18.6022 5.64035 18.6271 5.33836 18.8647L5.00472 19.127V24.0997C5.00472 30.0932 4.78656 29.5729 7.31552 29.6094L7.91695 29.618V43.4195V57.2209L7.63206 57.222C4.67083 57.2344 4.0699 62.3327 6.86273 63.7478L7.60041 64.1216L10.9558 64.1454C12.8013 64.1585 14.4821 64.1729 14.6911 64.1776C15.0203 64.1848 15.1027 64.2632 15.3092 64.7652C17.6433 70.4405 26.0061 70.4022 28.1806 64.7063L28.3925 64.1515L43.4585 64.1366L58.5246 64.1216L58.8768 64.9779C61.033 70.2186 68.6899 70.3989 71.3585 65.2719L71.9227 64.188L72.6191 64.1768C73.0021 64.1707 74.2272 64.1558 75.3414 64.1437C77.3021 64.1224 77.3905 64.1098 78.0877 63.7566C80.7669 62.399 80.5923 58.4502 77.8062 57.3927L77.1141 57.1301L77.0395 54.3582C76.9746 51.9481 76.9273 51.4706 76.677 50.7C75.5208 47.14 72.4626 44.6165 68.98 44.3488L67.9295 44.2681L66.7026 42.5459C64.7831 39.8519 63.1274 37.5186 62.156 36.1389C58.337 30.7145 59.5015 31.3907 53.9779 31.3907H49.4479L49.448 30.4727L49.4482 29.5547L50.4293 29.5667C52.4664 29.5918 52.3601 29.8954 52.3601 24.0493V19.2238L52.0493 18.913C51.7469 18.6105 51.6873 18.6022 49.8346 18.6022H47.9305C38.006 18.6021 22.3612 18.6021 9.27266 18.6022ZM23.681 24.0783V27.4654H15.3242H6.96731L6.9801 24.1416C6.98707 22.3136 7.00125 20.7748 7.01176 20.7222C7.02214 20.6694 10.7769 20.6409 15.3558 20.6589L23.681 20.6914V24.0783ZM31.5947 24.0468V27.4655H28.6824H25.7702V24.0468V20.6281H28.6824H31.5947V24.0468ZM50.3342 24.0468V27.4655H41.9774H33.6206V24.0468V20.6281H41.9774H50.3342V24.0468ZM24.6306 42.6839V55.813L24.295 55.6389C22.4924 54.7037 19.5934 55.1019 17.6336 56.5539L16.9041 57.0943H13.4235H9.94285V43.3245V29.5547H17.2867H24.6306V42.6839ZM30.5817 43.3245V57.0943H28.6495H26.7173L26.7353 43.3878C26.7452 35.8492 26.7601 29.6528 26.7683 29.618C26.7766 29.5832 27.6379 29.5547 28.6826 29.5547H30.5817V43.3245ZM47.422 43.3245V57.0943H40.0148H32.6076V43.3245V29.5547H40.0148H47.422V43.3245ZM58.1042 34.018C58.2956 34.2792 58.8734 35.0911 59.3882 35.8223C59.9032 36.5536 61.0253 38.1371 61.8819 39.3413C62.7384 40.5456 63.6897 41.8846 63.9959 42.3169C64.302 42.7491 64.7485 43.3735 64.9879 43.7044L65.4234 44.3058H59.9047H54.386V40.7144V37.1231L54.0523 36.7892C53.6229 36.3598 53.0862 36.351 52.671 36.7663L52.3601 37.077V41.3708C52.3601 45.4945 52.3703 45.6775 52.6173 45.9913L52.8745 46.3183L61.1324 46.3566L69.3903 46.3951L70.3053 46.7345C73.5956 47.9549 74.8905 50.1081 74.994 54.5302L75.054 57.0943H72.5715H70.0889L69.4975 56.6429C66.9171 54.6732 63.3673 54.6851 60.8856 56.6717L60.3577 57.0943H54.9029H49.4479V45.3187V33.5432H53.602H57.7561L58.1042 34.018ZM23.8076 57.7124C26.2555 58.8511 27.2989 61.7832 26.1179 64.2052C23.9449 68.662 17.2957 67.4423 16.9485 62.5233C16.679 58.7022 20.3699 56.1134 23.8076 57.7124ZM66.7959 57.4895C69.0356 58.2499 70.4346 60.6849 69.9748 63.0223C69.0757 67.5925 62.8766 68.397 60.8159 64.211C58.9439 60.4086 62.7601 56.1193 66.7959 57.4895ZM15.3856 59.1835C15.3128 59.1835 14.7544 61.3394 14.7544 61.6209V62.0324H11.323H7.89163L7.46113 61.6019C6.61772 60.7585 7.05316 59.4037 8.22641 59.2217C8.36177 59.2007 10.0283 59.1835 11.93 59.1835C13.8317 59.1835 15.3856 59.1835 15.3856 59.1835ZM20.8056 59.2377C18.3468 60.0333 18.0681 63.5138 20.3632 64.7629C22.9474 66.1694 25.86 63.0756 24.3108 60.5697C23.6192 59.4512 22.0219 58.8441 20.8056 59.2377ZM58.483 59.2381C58.7764 59.2452 58.8276 59.2887 58.7537 59.4684C58.5433 59.9804 58.3125 60.9932 58.2921 61.4943L58.2702 62.0324H43.4943H28.7185L28.64 61.2816C28.5853 60.7579 28.1421 59.1835 28.0495 59.1835C28.0495 59.1835 34.8156 59.1939 43.0853 59.2064C51.3552 59.2191 58.2841 59.2334 58.483 59.2381ZM64.153 59.2935C61.9533 60.0896 61.5586 62.9091 63.4253 64.4913L64.0349 65.0079H65.1299C66.4104 65.0079 67.0675 64.676 67.7252 63.6967C69.2822 61.3784 66.8106 58.3318 64.153 59.2935ZM77.3412 59.4313C77.8692 59.7773 78.1049 60.5315 77.8691 61.121C77.5323 61.9626 77.2769 62.0324 74.5306 62.0324H72.1126V61.5954C72.1126 61.0916 71.8736 59.8766 71.7376 59.69C71.3713 59.1866 71.3918 59.1827 74.2659 59.2021C76.5987 59.2179 77.0691 59.253 77.3412 59.4313ZM22.3612 61.5162C22.8129 61.968 22.8304 62.3248 22.4205 62.7345C21.9976 63.1575 21.4376 63.1479 21.0945 62.7117C20.3334 61.7442 21.494 60.649 22.3612 61.5162ZM65.94 61.5453C66.2342 61.8931 66.2198 62.304 65.8991 62.7117C65.2104 63.5874 63.8676 62.6266 64.3971 61.6371C64.6829 61.1031 65.5235 61.0531 65.94 61.5453Z" fill="#9D81BA"/>
<path d="M50 19.3062H7.50604V57.9136H50V19.3062Z" fill="#E7DBEA"/>
<path d="M50 19.3062H7.50604V57.9136H50V19.3062Z" stroke="#9D81BA" stroke-width="1.4173" stroke-miterlimit="22.9256" stroke-linecap="round" stroke-linejoin="round"/>
<path d="M31.2955 19.3062H26.3923V57.9136H31.2955V19.3062Z" stroke="#9D81BA" stroke-width="1.4173" stroke-miterlimit="22.9256" stroke-linecap="round" stroke-linejoin="round"/>
<path d="M13.6804 19.2473C13.3172 17.7945 14.4068 8.71461 17.1307 8.53301C19.8547 8.35141 26.7555 14.8889 26.7555 14.8889" stroke="#9D81BA" stroke-width="1.4173" stroke-miterlimit="22.9256" stroke-linecap="round" stroke-linejoin="round"/>
<path d="M44.1889 19.4289C44.5521 17.9762 43.4625 8.71465 40.7385 8.71465C38.0145 8.53305 31.1138 15.0706 31.1138 15.0706" stroke="#9D81BA" stroke-width="1.4173" stroke-miterlimit="22.9256" stroke-linecap="round" stroke-linejoin="round"/>
<path d="M26.3923 19.9742C26.3923 19.9742 26.0291 15.2526 26.9371 14.8894C27.8451 14.3447 29.8426 14.1631 30.7506 14.7079C31.6586 15.2526 31.6586 19.9742 31.6586 19.9742H26.7555H26.3923V19.9742Z" stroke="#9D81BA" stroke-width="1.4173" stroke-miterlimit="22.9256" stroke-linecap="round" stroke-linejoin="round"/>
<path d="M17.1308 8.53369C17.1308 8.53369 14.4068 9.80488 18.402 12.3472C22.3971 14.8896 26.7555 14.708 26.7555 14.708" stroke="#9D81BA" stroke-width="1.4173" stroke-miterlimit="22.9256" stroke-linecap="round" stroke-linejoin="round"/>
<path d="M40.7385 8.53369C40.7385 8.53369 43.4625 9.80488 39.4673 12.3472C35.4722 14.8896 31.1138 14.708 31.1138 14.708" stroke="#9D81BA" stroke-width="1.4173" stroke-miterlimit="22.9256" stroke-linecap="round" stroke-linejoin="round"/>
</svg>
