<svg width="85" height="85" viewBox="0 0.5 85 85" fill="none" xmlns="http://www.w3.org/2000/svg">
<path d="M69.5915 42.6962C70.1898 42.3202 70.7105 41.9127 71.1213 41.4745V73.9902C71.1213 74.7922 70.5025 75.6837 69.0594 76.5907C67.6415 77.4819 65.5565 78.3027 62.9353 78.9991C57.7003 80.3901 50.4396 81.2559 42.3978 81.2559C34.356 81.2559 27.0954 80.3901 21.8603 78.9991C19.2391 78.3027 17.1542 77.4819 15.7363 76.5907C14.2931 75.6837 13.6744 74.7922 13.6744 73.9902V41.4745C14.0852 41.9127 14.6058 42.3202 15.2042 42.6962C16.7431 43.6635 18.9369 44.5159 21.6035 45.2244C26.9441 46.6434 34.2952 47.5147 42.3978 47.5147C50.5005 47.5147 57.8515 46.6434 63.1921 45.2244C65.8587 44.5159 68.0525 43.6635 69.5915 42.6962Z" stroke="#9D81BA"/>
<path d="M71.6213 39.249V73.9902C71.6213 78.2817 58.5423 81.7559 42.3978 81.7559C26.2534 81.7559 13.1744 78.2817 13.1744 73.9902V39.249C13.1744 43.5406 26.2534 47.0147 42.3978 47.0147C58.5423 47.0147 71.6213 43.5406 71.6213 39.249Z" stroke="#9D81BA" stroke-width="1.4173" stroke-miterlimit="22.9256" stroke-linecap="round" stroke-linejoin="round"/>
<path d="M13.3787 64.3848C13.3787 68.6763 26.4577 72.1504 42.6022 72.1504C58.7466 72.1504 71.8256 68.6763 71.8256 64.3848" stroke="#9D81BA" stroke-width="1.4173" stroke-miterlimit="22.9256" stroke-linecap="round" stroke-linejoin="round"/>
<path d="M47.3025 54.3716C47.3025 54.3716 51.3897 64.9983 71.8257 64.3852" stroke="#9D81BA" stroke-width="1.4173" stroke-miterlimit="22.9256" stroke-linecap="round" stroke-linejoin="round"/>
<path d="M47.3025 56.4148C48.5287 56.4148 49.3461 55.5974 49.3461 54.3712C49.3461 53.1451 48.5287 52.3276 47.3025 52.3276C46.0764 52.3276 45.2589 53.1451 45.2589 54.3712C45.2589 55.393 46.0764 56.4148 47.3025 56.4148Z" stroke="#9D81BA" stroke-width="1.4173" stroke-miterlimit="22.9256" stroke-linecap="round" stroke-linejoin="round"/>
<path d="M15.8311 19.2212C16.0355 18.6081 12.1527 14.1122 16.8529 12.4773C21.3488 10.8424 22.1663 17.3819 22.575 16.9732C27.0709 12.886 32.5886 17.1776 26.6622 21.6735C31.7712 22.8997 30.7494 26.9869 27.2753 28.0087C26.0491 28.4174 24.4142 27.3956 22.9837 27.1912C22.3706 26.9869 21.3488 32.3002 17.8747 31.6871C14.4006 31.074 14.8093 27.8043 16.0355 25.9651C15.6268 25.352 13.1745 25.5563 11.9483 24.7389C10.9265 24.1258 10.7221 22.6953 10.9265 21.8779C11.9483 19.0168 15.6268 19.6299 15.8311 19.2212Z" stroke="#9D81BA" stroke-width="1.4173" stroke-miterlimit="22.9256" stroke-linecap="round" stroke-linejoin="round"/>
<path d="M65.4904 18.6078C66.1035 18.4034 65.2861 12.6813 69.5776 13.7031C74.0735 14.7249 71.2125 20.2427 71.8256 20.0383C77.3433 19.0165 79.5912 25.3516 72.8474 25.7604C76.3215 29.2345 73.4604 32.0955 70.1907 31.0737C69.1689 30.665 68.1471 29.2345 67.1253 28.2127C66.7166 27.804 63.2425 31.4824 60.7901 29.2345C58.3378 26.9865 60.3814 24.5342 62.2207 23.7168C62.2207 23.1037 60.1771 22.0819 59.564 20.8557C59.1553 19.8339 59.7683 18.6078 60.3814 17.9947C62.6294 16.3598 65.0817 18.8121 65.4904 18.6078Z" stroke="#9D81BA" stroke-width="1.4173" stroke-miterlimit="22.9256" stroke-linecap="round" stroke-linejoin="round"/>
<path d="M30.1362 32.9138C30.5449 32.5051 27.4795 27.8048 31.771 26.783C36.267 25.7612 36.0626 31.892 36.4713 31.4833C40.9672 28.2136 45.4631 32.9138 39.7411 36.1836C44.237 37.8185 43.0108 41.7013 39.5367 42.11C38.5149 42.3144 36.88 41.2926 35.6539 40.6795C35.0408 40.4751 33.6103 45.1754 30.3405 44.1536C27.2751 43.1318 28.0926 40.0664 29.3187 38.6359C29.1144 38.0228 26.8664 37.8185 25.8446 37.001C25.0272 36.3879 25.0272 34.9574 25.4359 34.14C26.662 32.3008 29.7274 33.3225 30.1362 32.9138Z" stroke="#9D81BA" stroke-width="1.4173" stroke-miterlimit="22.9256" stroke-linecap="round" stroke-linejoin="round"/>
<path d="M52.0028 31.483C52.4115 31.0743 51.1853 26.1696 55.2725 26.5784C59.5641 26.9871 57.5205 32.3004 58.1336 32.3004C63.2426 30.6656 65.8992 36.1833 59.5641 37.4094C63.0382 40.2705 60.7902 43.1315 57.7248 42.7228C56.703 42.5184 55.6812 41.0879 54.6594 40.4748C54.2507 40.0661 51.3897 43.9489 48.9374 42.1097C46.4851 40.2705 47.9156 37.8182 49.7548 37.0007C49.7548 36.3876 47.7112 35.5702 47.0981 34.5484C46.4851 33.731 46.8938 32.5048 47.5069 31.8917C48.9374 29.6438 51.5941 31.6874 52.0028 31.483Z" stroke="#9D81BA" stroke-width="1.4173" stroke-miterlimit="22.9256" stroke-linecap="round" stroke-linejoin="round"/>
<path d="M39.1281 12.6814C39.7411 12.2727 37.4932 5.9375 42.8065 5.9375C48.3243 5.9375 46.2807 13.0901 46.8937 12.8857C53.2289 10.2291 57.1117 17.1773 49.3461 19.4252C54.2507 22.695 51.594 26.5778 47.5068 26.3735C46.2807 26.1691 44.6458 24.5342 43.2153 23.7168C42.6022 23.3081 39.5368 28.4171 36.0627 26.3735C32.5886 24.3299 34.4278 21.0601 36.4714 19.6296C36.267 18.8122 33.8147 17.9947 32.7929 16.7686C31.9755 15.7468 32.3842 14.1119 32.9973 13.2945C35.2452 10.8421 38.515 12.8857 39.1281 12.6814Z" stroke="#9D81BA" stroke-width="1.4173" stroke-miterlimit="22.9256" stroke-linecap="round" stroke-linejoin="round"/>
<path d="M18.7506 20.907C18.904 20.5043 19.211 20.1433 19.7015 19.8895C20.7627 19.5515 21.8144 19.9521 22.1005 20.8105C22.4581 21.8831 22.0582 22.9542 21.1906 23.2434C20.118 23.601 19.0469 23.2011 18.7577 22.3335C18.585 21.8153 18.5925 21.322 18.7506 20.907Z" fill="#9D81BA" stroke="#9D81BA"/>
<path d="M68.2692 21.1456C69.2044 21.3015 69.8596 22.2541 69.6975 23.2269C69.5416 24.162 68.5889 24.8172 67.6162 24.6551C66.681 24.4992 66.0258 23.5466 66.1879 22.5738C66.3438 21.6386 67.2965 20.9835 68.2692 21.1456Z" fill="#9D81BA" stroke="#9D81BA"/>
<path d="M33.6925 34.2245L33.7312 34.2181L33.7685 34.2057C34.6825 33.901 35.6163 34.5035 35.7738 35.4484L35.7803 35.4871L35.7927 35.5243C36.0974 36.4384 35.4949 37.3722 34.5499 37.5297L34.5112 37.5361L34.474 37.5485C33.5599 37.8532 32.6261 37.2507 32.4687 36.3058L32.4622 36.2671L32.4498 36.2299C32.1451 35.3158 32.7476 34.382 33.6925 34.2245Z" fill="#9D81BA" stroke="#9D81BA"/>
<path d="M54.7815 33.6117L54.8224 33.6185H54.8637C55.7531 33.6185 56.4073 34.3516 56.4073 35.3664C56.4073 36.2558 55.6742 36.91 54.6594 36.91C53.77 36.91 53.1158 36.1769 53.1158 35.1621C53.1158 34.1919 53.9102 33.4664 54.7815 33.6117Z" fill="#9D81BA" stroke="#9D81BA"/>
<path d="M42.8066 14.8169C43.961 14.8169 44.9633 15.8192 44.9633 16.9736C44.9633 18.1279 43.961 19.1302 42.8066 19.1302C41.6522 19.1302 40.6499 18.1279 40.6499 16.9736C40.6499 15.8192 41.6522 14.8169 42.8066 14.8169Z" fill="#9D81BA" stroke="#9D81BA"/>
<path d="M33.6104 5.41602C34.7648 5.41602 35.7671 6.41832 35.7671 7.5727C35.7671 8.72707 34.7648 9.72937 33.6104 9.72937C32.456 9.72937 31.4537 8.72707 31.4537 7.5727C31.4537 6.3925 32.2768 5.41602 33.6104 5.41602Z" fill="#9D81BA" stroke="#9D81BA"/>
<path d="M26.9577 5.73374V5.67219L26.9428 5.61247C26.8795 5.35942 26.9444 5.17399 27.0592 5.04642C27.1822 4.90979 27.3977 4.80322 27.6839 4.80322C28.276 4.80322 28.6144 5.2407 28.6144 5.52938C28.6144 6.12154 28.1769 6.4599 27.8882 6.4599C27.2961 6.4599 26.9577 6.02243 26.9577 5.73374Z" fill="#9D81BA" stroke="#9D81BA"/>
<path d="M21.6444 33.3221V33.2606L21.6295 33.2009C21.5662 32.9478 21.6311 32.7624 21.746 32.6348C21.8689 32.4982 22.0844 32.3916 22.3706 32.3916C22.9627 32.3916 23.3011 32.8291 23.3011 33.1178C23.3011 33.7099 22.8636 34.0483 22.5749 34.0483C21.9828 34.0483 21.6444 33.6108 21.6444 33.3221Z" fill="#9D81BA" stroke="#9D81BA"/>
<path d="M24.0055 10.1167C24.5976 10.1167 24.936 10.5542 24.936 10.8429C24.936 11.435 24.4985 11.7734 24.2098 11.7734C23.6177 11.7734 23.2793 11.3359 23.2793 11.0472C23.2793 10.8876 23.3698 10.6382 23.5494 10.4187C23.7348 10.1922 23.9135 10.1167 24.0055 10.1167Z" fill="#9D81BA" stroke="#9D81BA"/>
<path d="M8.06538 30.7573C8.44764 30.7573 8.84411 30.9127 9.14288 31.1716C9.44024 31.4293 9.60897 31.7594 9.60897 32.0966C9.60897 32.4788 9.45362 32.8753 9.19468 33.1741C8.93697 33.4714 8.60688 33.6402 8.26973 33.6402C7.88747 33.6402 7.491 33.4848 7.19223 33.2259C6.89487 32.9682 6.72614 32.6381 6.72614 32.3009C6.72614 31.9187 6.88148 31.5222 7.14043 31.2234C7.39814 30.9261 7.72823 30.7573 8.06538 30.7573Z" fill="#9D81BA" stroke="#9D81BA"/>
<path d="M18.3746 37.2052V37.1557L18.3649 37.1072C18.228 36.4227 18.7741 35.6616 19.7139 35.6616C20.0961 35.6616 20.4926 35.817 20.7914 36.0759C21.0887 36.3336 21.2575 36.6637 21.2575 37.0009C21.2575 37.3831 21.1021 37.7796 20.8432 38.0784C20.5855 38.3757 20.2554 38.5445 19.9182 38.5445C19.536 38.5445 19.1395 38.3891 18.8407 38.1302C18.5433 37.8725 18.3746 37.5424 18.3746 37.2052Z" fill="#9D81BA" stroke="#9D81BA"/>
<path d="M59.7684 10.7295C60.1506 10.7295 60.5471 10.8848 60.8459 11.1438C61.1432 11.4015 61.312 11.7316 61.312 12.0687C61.312 12.451 61.1566 12.8475 60.8977 13.1462C60.64 13.4436 60.3099 13.6123 59.9727 13.6123C59.5905 13.6123 59.194 13.457 58.8952 13.198C58.5979 12.9403 58.4291 12.6102 58.4291 12.2731C58.4291 11.2875 59.057 10.7295 59.7684 10.7295Z" fill="#9D81BA" stroke="#9D81BA"/>
<path d="M65.7861 35.3664V35.325L65.7793 35.2842C65.7051 34.8389 65.8498 34.488 66.0995 34.2383C66.3595 33.9782 66.7416 33.8228 67.1254 33.8228C67.5076 33.8228 67.9041 33.9781 68.2029 34.237C68.5002 34.4948 68.669 34.8248 68.669 35.162C68.669 35.5443 68.5136 35.9407 68.2547 36.2395C67.997 36.5369 67.6669 36.7056 67.3297 36.7056C66.9475 36.7056 66.551 36.5502 66.2522 36.2913C65.9549 36.0336 65.7861 35.7035 65.7861 35.3664Z" fill="#9D81BA" stroke="#9D81BA"/>
<path d="M77.4347 35.3658V35.3163L77.425 35.2678C77.346 34.8729 77.436 34.6381 77.5601 34.5016C77.6928 34.3555 77.9474 34.231 78.3652 34.231C78.6541 34.231 78.9502 34.3414 79.1691 34.5238C79.3854 34.7041 79.5001 34.9295 79.5001 35.1615C79.5001 35.4504 79.3897 35.7464 79.2072 35.9654C79.027 36.1817 78.8015 36.2964 78.5695 36.2964C78.2807 36.2964 77.9846 36.186 77.7657 36.0035C77.5493 35.8233 77.4347 35.5978 77.4347 35.3658Z" fill="#9D81BA" stroke="#9D81BA"/>
<path d="M65.8992 9.09521C66.0921 9.09521 66.214 9.15734 66.2864 9.22976C66.3589 9.30219 66.421 9.4241 66.421 9.61701C66.421 9.80993 66.3589 9.93184 66.2864 10.0043C66.214 10.0767 66.0921 10.1388 65.8992 10.1388C65.7063 10.1388 65.5844 10.0767 65.5119 10.0043C65.4395 9.93184 65.3774 9.80993 65.3774 9.61701C65.3774 9.4241 65.4395 9.30219 65.5119 9.22976C65.5844 9.15734 65.7063 9.09521 65.8992 9.09521Z" fill="#9D81BA" stroke="#9D81BA"/>
<path d="M6.22616 24.0127C6.81831 24.0127 7.15668 24.4502 7.15668 24.7389C7.15668 25.331 6.7192 25.6694 6.43052 25.6694C5.83836 25.6694 5.5 25.2319 5.5 24.9432C5.5 24.3511 5.93747 24.0127 6.22616 24.0127Z" fill="#9D81BA" stroke="#9D81BA"/>
</svg>
