<svg width="85" height="85" viewBox="0 0.5 85 85" fill="none" xmlns="http://www.w3.org/2000/svg">
<path d="M80 20.3315H37.506V70.271H80V20.3315Z" stroke="#9D81BA" stroke-width="1.4173" stroke-miterlimit="22.9256" stroke-linecap="round" stroke-linejoin="round"/>
<path d="M45.3148 55.7432H8.08719V77.1717H45.3148V55.7432Z" fill="#D8CADB"/>
<path d="M45.3148 55.7432H8.08719V77.1717H45.3148V55.7432Z" stroke="#9D81BA" stroke-width="1.4173" stroke-miterlimit="22.9256" stroke-linecap="round" stroke-linejoin="round"/>
<path d="M48.5835 45.0288H5V55.7431H48.5835V45.0288Z" fill="#D8C9DB"/>
<path d="M48.5835 45.0288H5V55.7431H48.5835V45.0288Z" stroke="#9D81BA" stroke-width="1.4173" stroke-miterlimit="22.9256" stroke-linecap="round" stroke-linejoin="round"/>
<path d="M29.6973 45.3916H23.8862V77.1713H29.6973V45.3916Z" stroke="#9D81BA" stroke-width="1.4173" stroke-miterlimit="22.9256" stroke-linecap="round" stroke-linejoin="round"/>
<path d="M61.2955 20.3315H56.3923V70.271H61.2955V20.3315Z" stroke="#9D81BA" stroke-width="1.4173" stroke-miterlimit="22.9256" stroke-linecap="round" stroke-linejoin="round"/>
<path d="M43.6804 19.6047C43.3172 18.1519 44.4068 9.07203 47.1307 8.89043C49.8547 8.70884 56.7555 15.2464 56.7555 15.2464" stroke="#9D81BA" stroke-width="1.4173" stroke-miterlimit="22.9256" stroke-linecap="round" stroke-linejoin="round"/>
<path d="M9.35838 44.3022C8.99519 42.6678 10.2664 32.3167 13.3535 32.1351C16.4407 31.9535 24.2494 39.399 24.2494 39.399" stroke="#9D81BA" stroke-width="1.4173" stroke-miterlimit="22.9256" stroke-linecap="round" stroke-linejoin="round"/>
<path d="M74.1889 19.7864C74.5521 18.3336 73.4625 9.07207 70.7385 9.07207C68.0145 8.89048 61.1138 15.428 61.1138 15.428" stroke="#9D81BA" stroke-width="1.4173" stroke-miterlimit="22.9256" stroke-linecap="round" stroke-linejoin="round"/>
<path fill-rule="evenodd" clip-rule="evenodd" d="M29.5158 45.3921C30.4238 45.3921 40.7749 45.3921 41.3197 45.3921C44.0436 45.0289 44.0436 43.7577 44.0436 43.2129C44.0436 39.9442 42.5908 32.317 39.8669 32.1354C37.3245 31.9538 31.3318 37.2202 29.5158 38.8546C29.3342 39.0362 29.6974 41.2153 29.6974 43.0313C29.879 44.3025 29.5158 45.3921 29.5158 45.3921Z" fill="#DCCEDF"/>
<path d="M29.5158 45.3921C30.4238 45.3921 40.7749 45.3921 41.3197 45.3921C44.0436 45.0289 44.0436 43.7577 44.0436 43.2129C44.0436 39.9442 42.5908 32.317 39.8669 32.1354C37.3245 31.9538 31.3318 37.2202 29.5158 38.8546C29.3342 39.0362 29.6974 41.2153 29.6974 43.0313C29.879 44.3025 29.5158 45.3921 29.5158 45.3921Z" stroke="#9D81BA" stroke-width="1.4173" stroke-miterlimit="22.9256" stroke-linecap="round" stroke-linejoin="round"/>
<path d="M56.3923 20.3316C56.3923 20.3316 56.0291 15.6101 56.9371 15.2469C57.8451 14.7021 59.8426 14.5205 60.7506 15.0653C61.6586 15.6101 61.6586 20.3316 61.6586 20.3316H56.7555H56.3923V20.3316Z" stroke="#9D81BA" stroke-width="1.4173" stroke-miterlimit="22.9256" stroke-linecap="round" stroke-linejoin="round"/>
<path d="M23.8862 45.0282C23.8862 45.0282 23.3414 39.7619 24.431 39.2171C25.5206 38.6723 27.6998 38.4907 28.7894 39.0355C29.6974 39.5803 29.6974 45.0282 29.6974 45.0282H24.2494H23.8862V45.0282Z" stroke="#9D81BA" stroke-width="1.4173" stroke-miterlimit="22.9256" stroke-linecap="round" stroke-linejoin="round"/>
<path d="M47.1308 8.89111C47.1308 8.89111 44.4068 10.1623 48.402 12.7047C52.3971 15.247 56.7555 15.0654 56.7555 15.0654" stroke="#9D81BA" stroke-width="1.4173" stroke-miterlimit="22.9256" stroke-linecap="round" stroke-linejoin="round"/>
<path d="M13.3535 32.1353C13.3535 32.1353 10.2664 33.588 14.8063 36.4936C19.3463 39.3992 24.2494 39.2176 24.2494 39.2176" stroke="#9D81BA" stroke-width="1.4173" stroke-miterlimit="22.9256" stroke-linecap="round" stroke-linejoin="round"/>
<path d="M70.7385 8.89111C70.7385 8.89111 73.4625 10.1623 69.4673 12.7047C65.4722 15.247 61.1138 15.0654 61.1138 15.0654" stroke="#9D81BA" stroke-width="1.4173" stroke-miterlimit="22.9256" stroke-linecap="round" stroke-linejoin="round"/>
<path d="M40.0485 32.1353C40.0485 32.1353 43.1356 33.588 38.5957 36.4936C34.0557 39.3992 29.1526 39.2176 29.1526 39.2176" stroke="#9D81BA" stroke-width="1.4173" stroke-miterlimit="22.9256" stroke-linecap="round" stroke-linejoin="round"/>
</svg>
