<svg width="85" height="85" viewBox="0 0.5 85 85" fill="none" xmlns="http://www.w3.org/2000/svg">
<path d="M61.25 47.7168H49.5312C49.2204 47.7168 48.9224 47.8403 48.7026 48.06C48.4828 48.2798 48.3594 48.5779 48.3594 48.8887C48.3594 49.1995 48.4828 49.4975 48.7026 49.7173C48.9224 49.9371 49.2204 50.0605 49.5312 50.0605H61.25C61.5608 50.0605 61.8589 49.9371 62.0786 49.7173C62.2984 49.4975 62.4219 49.1995 62.4219 48.8887C62.4219 48.5779 62.2984 48.2798 62.0786 48.06C61.8589 47.8403 61.5608 47.7168 61.25 47.7168Z" fill="#9D81BA"/>
<path d="M63.5938 43.0293H49.5312C49.2204 43.0293 48.9224 43.1528 48.7026 43.3725C48.4828 43.5923 48.3594 43.8904 48.3594 44.2012C48.3594 44.512 48.4828 44.81 48.7026 45.0298C48.9224 45.2496 49.2204 45.373 49.5312 45.373H63.5938C63.9046 45.373 64.2026 45.2496 64.4224 45.0298C64.6422 44.81 64.7656 44.512 64.7656 44.2012C64.7656 43.8904 64.6422 43.5923 64.4224 43.3725C64.2026 43.1528 63.9046 43.0293 63.5938 43.0293Z" fill="#9D81BA"/>
<path d="M56.5625 52.4043H49.5312C49.2204 52.4043 48.9224 52.5278 48.7026 52.7475C48.4828 52.9673 48.3594 53.2654 48.3594 53.5762C48.3594 53.887 48.4828 54.185 48.7026 54.4048C48.9224 54.6246 49.2204 54.748 49.5312 54.748H56.5625C56.8733 54.748 57.1714 54.6246 57.3911 54.4048C57.6109 54.185 57.7344 53.887 57.7344 53.5762C57.7344 53.2654 57.6109 52.9673 57.3911 52.7475C57.1714 52.5278 56.8733 52.4043 56.5625 52.4043Z" fill="#9D81BA"/>
<path d="M77.3632 18.8179L67.9882 8.27103C67.8794 8.14489 67.7444 8.04392 67.5926 7.97512C67.4408 7.90633 67.2759 7.87134 67.1093 7.87259H17.8906C17.724 7.87134 17.5591 7.90633 17.4073 7.97512C17.2555 8.04392 17.1205 8.14489 17.0117 8.27103L7.63667 18.8179C7.44683 19.0307 7.34247 19.3062 7.3437 19.5913V30.7242C7.34485 31.9105 7.67376 33.0735 8.29414 34.0847C8.91453 35.0959 9.80225 35.9161 10.8593 36.4546V66.4663H8.51557C8.20477 66.4663 7.9067 66.5898 7.68693 66.8096C7.46716 67.0293 7.3437 67.3274 7.3437 67.6382V72.3257C7.3437 73.8797 7.96102 75.3701 9.05987 76.4689C10.1587 77.5678 11.6491 78.1851 13.2031 78.1851H71.7968C73.3508 78.1851 74.8412 77.5678 75.94 76.4689C77.0389 75.3701 77.6562 73.8797 77.6562 72.3257V67.6382C77.6562 67.3274 77.5327 67.0293 77.313 66.8096C77.0932 66.5898 76.7951 66.4663 76.4843 66.4663H74.1406V36.4546C75.1976 35.9161 76.0854 35.0959 76.7057 34.0847C77.3261 33.0735 77.6551 31.9105 77.6562 30.7242V19.5913C77.6574 19.3062 77.5531 19.0307 77.3632 18.8179ZM18.4179 10.2163H66.582L73.871 18.4195H11.1289L18.4179 10.2163ZM9.68745 30.7242V27.7945H17.8906V30.7242C17.8906 31.812 17.4584 32.8552 16.6893 33.6244C15.9201 34.3936 14.8768 34.8257 13.789 34.8257C12.7012 34.8257 11.658 34.3936 10.8888 33.6244C10.1196 32.8552 9.68745 31.812 9.68745 30.7242ZM24.9218 37.1695C26.0828 37.1686 27.2256 36.8803 28.248 36.3302C29.2704 35.7802 30.1407 34.9855 30.7812 34.0171C31.4211 34.986 32.2913 35.7811 33.3138 36.3313C34.3364 36.8814 35.4794 37.1693 36.6406 37.1693C37.8017 37.1693 38.9447 36.8814 39.9673 36.3313C40.9899 35.7811 41.8601 34.986 42.5 34.0171C43.1398 34.986 44.01 35.7811 45.0326 36.3313C46.0552 36.8814 47.1982 37.1693 48.3593 37.1693C49.5205 37.1693 50.6635 36.8814 51.6861 36.3313C52.7086 35.7811 53.5788 34.986 54.2187 34.0171C54.8469 34.9689 55.6977 35.7532 56.6972 36.3022C57.6968 36.8512 58.815 37.1484 59.9553 37.168C61.0955 37.1876 62.2233 36.9291 63.2412 36.4148C64.259 35.9005 65.1362 35.1459 65.7968 34.2163C66.1573 34.7719 66.5998 35.2698 67.1093 35.6929V61.7788H17.8906V35.6929C18.4001 35.2698 18.8426 34.7719 19.2031 34.2163C19.8524 35.1283 20.71 35.872 21.7047 36.3857C22.6994 36.8993 23.8023 37.168 24.9218 37.1695ZM20.2343 30.1382V27.7945H29.6093V30.1382C29.6093 31.3814 29.1155 32.5737 28.2364 33.4528C27.3573 34.3319 26.165 34.8257 24.9218 34.8257C23.6786 34.8257 22.4863 34.3319 21.6073 33.4528C20.7282 32.5737 20.2343 31.3814 20.2343 30.1382ZM31.9531 30.1382V27.7945H41.3281V30.1382C41.3281 31.3814 40.8342 32.5737 39.9551 33.4528C39.0761 34.3319 37.8838 34.8257 36.6406 34.8257C35.3974 34.8257 34.2051 34.3319 33.326 33.4528C32.4469 32.5737 31.9531 31.3814 31.9531 30.1382ZM43.6718 30.1382V27.7945H53.0468V30.1382C53.0468 31.3814 52.553 32.5737 51.6739 33.4528C50.7948 34.3319 49.6025 34.8257 48.3593 34.8257C47.1161 34.8257 45.9238 34.3319 45.0448 33.4528C44.1657 32.5737 43.6718 31.3814 43.6718 30.1382ZM55.3906 30.1382V27.7945H64.7656V30.1382C64.7656 31.3814 64.2717 32.5737 63.3926 33.4528C62.5136 34.3319 61.3213 34.8257 60.0781 34.8257C58.8349 34.8257 57.6426 34.3319 56.7635 33.4528C55.8844 32.5737 55.3906 31.3814 55.3906 30.1382ZM13.2031 66.4663V37.1343C13.3975 37.158 13.5932 37.1698 13.789 37.1695C14.3833 37.1657 14.9744 37.083 15.5468 36.9234V62.9507C15.5468 63.2615 15.6703 63.5596 15.8901 63.7794C16.1098 63.9991 16.4079 64.1226 16.7187 64.1226H68.2812C68.592 64.1226 68.8901 63.9991 69.1098 63.7794C69.3296 63.5596 69.4531 63.2615 69.4531 62.9507V36.9234C70.0255 37.083 70.6166 37.1657 71.2109 37.1695C71.4067 37.1698 71.6024 37.158 71.7968 37.1343V66.4663H13.2031ZM47.1874 68.8101V69.982C47.1874 70.2928 47.064 70.5908 46.8442 70.8106C46.6244 71.0304 46.3264 71.1538 46.0156 71.1538H38.9843C38.6735 71.1538 38.3755 71.0304 38.1557 70.8106C37.9359 70.5908 37.8125 70.2928 37.8125 69.982V68.8101H47.1874ZM75.3124 68.8101V72.3257C75.3097 73.2573 74.9384 74.1499 74.2797 74.8086C73.621 75.4673 72.7284 75.8386 71.7968 75.8413H13.2031C12.2715 75.8386 11.3789 75.4673 10.7202 74.8086C10.0615 74.1499 9.69023 73.2573 9.68745 72.3257V68.8101H35.4687V69.982C35.4715 70.9135 35.8428 71.8061 36.5015 72.4648C37.1602 73.1235 38.0528 73.4948 38.9843 73.4976H46.0156C46.9471 73.4948 47.8397 73.1235 48.4984 72.4648C49.1571 71.8061 49.5284 70.9135 49.5312 69.982V68.8101H75.3124ZM75.3124 30.7242C75.3124 31.812 74.8803 32.8552 74.1111 33.6244C73.3419 34.3936 72.2987 34.8257 71.2109 34.8257C70.1231 34.8257 69.0798 34.3936 68.3106 33.6244C67.5415 32.8552 67.1093 31.812 67.1093 30.7242V27.7945H75.3124V30.7242ZM75.3124 25.4507H9.68745V20.7632H75.3124V25.4507Z" fill="#9D81BA" stroke="white"/>
<path d="M28.1281 44.6814C28.7411 44.2727 26.4932 37.9375 31.8065 37.9375C37.3243 37.9375 35.2807 45.0901 35.8937 44.8857C42.2289 42.2291 46.1117 49.1773 38.3461 51.4252C43.2507 54.695 40.594 58.5778 36.5068 58.3735C35.2807 58.1691 33.6458 56.5342 32.2153 55.7168C31.6022 55.3081 28.5368 60.4171 25.0627 58.3735C21.5886 56.3299 23.4278 53.0601 25.4714 51.6296C25.267 50.8122 22.8147 49.9947 21.7929 48.7686C20.9755 47.7468 21.3842 46.1119 21.9973 45.2945C24.2452 42.8421 27.515 44.8857 28.1281 44.6814Z" stroke="#9D81BA" stroke-width="1.4173" stroke-miterlimit="22.9256" stroke-linecap="round" stroke-linejoin="round"/>
<path d="M31.8066 46.8169C32.961 46.8169 33.9633 47.8192 33.9633 48.9736C33.9633 50.1279 32.961 51.1302 31.8066 51.1302C30.6522 51.1302 29.6499 50.1279 29.6499 48.9736C29.6499 47.8192 30.6522 46.8169 31.8066 46.8169Z" fill="#9D81BA" stroke="#9D81BA"/>
</svg>
