<svg width="24" height="24" viewBox="1 0 24 24" fill="none" xmlns="http://www.w3.org/2000/svg">
<g id="16 / time">
<path id="icon" fill-rule="evenodd" clip-rule="evenodd" d="M12.8463 24C6.2189 24 0.846313 18.6274 0.846313 12C0.846313 5.37258 6.2189 0 12.8463 0C19.4737 0 24.8463 5.37258 24.8463 12C24.8463 18.6274 19.4737 24 12.8463 24ZM12.8463 21C17.8169 21 21.8463 16.9706 21.8463 12C21.8463 7.02944 17.8169 3 12.8463 3C7.87575 3 3.84631 7.02944 3.84631 12C3.84631 16.9706 7.87575 21 12.8463 21ZM11.3507 13.4975H17.3507V10.4975H14.3517V5.99752H11.3507V13.4975Z" fill="white"/>
</g>
</svg>
