<svg width="36" height="37" viewBox="0 0 36 37" fill="none" xmlns="http://www.w3.org/2000/svg">
<circle cx="18" cy="18.5293" r="18" fill="#D978AC"/>
<path d="M13.4121 6.84407C12.8704 6.99748 11.8732 7.48647 11.2069 7.92512C9.69198 8.92227 8.0788 10.581 7.21109 12.0312C6.75566 12.7958 6.25708 13.944 6.25708 14.234C6.25708 14.2963 6.33139 14.433 6.43446 14.5624C6.46802 14.6055 6.55431 14.6079 8.46232 14.6247C9.55775 14.6343 10.459 14.6487 10.4662 14.6559C10.4734 14.6607 10.4398 14.8189 10.3919 15.0058C10.2409 15.6051 10.2073 15.8544 10.1953 16.4369C10.1762 17.2255 10.2481 17.7264 10.4782 18.4264C10.6963 19.0903 11.0391 19.7088 11.5065 20.2792C11.8205 20.6628 12.9087 21.7798 14.4093 23.2563C16.2957 25.1116 16.3221 25.1356 16.847 25.4663C17.3552 25.7851 18.1222 26.0992 18.6975 26.2238C19.5221 26.3988 20.4305 26.3964 21.2623 26.2118C22.8131 25.8666 24.1986 24.8599 25.0184 23.4792L25.1814 23.206L26.3799 23.2084C27.6503 23.2108 28.8488 23.2323 28.8704 23.2563C28.9063 23.2899 28.5947 24.2271 28.3766 24.7401C28.2663 25.0037 27.9451 25.6677 27.8972 25.73C27.8684 25.7684 27.8181 25.742 27.2476 25.3801C26.5237 24.9174 26.3535 24.8287 26.2073 24.8311C25.994 24.8335 25.8645 24.9798 25.8645 25.2147C25.8645 25.3321 25.8717 25.3489 25.9676 25.4424C26.0227 25.4975 26.2193 25.6413 26.4038 25.7636C27.1253 26.2358 27.2931 26.346 27.3579 26.3988L27.425 26.4539L27.3435 26.569C27.1229 26.8806 26.4638 27.5421 26.0707 27.849C25.9556 27.9376 25.9556 27.9376 25.9149 27.8897C25.8933 27.8633 25.7902 27.6812 25.6847 27.4894C25.3803 26.9285 25.2293 26.7535 25.0471 26.7535C24.9369 26.7535 24.7619 26.883 24.7044 27.0052C24.6421 27.1371 24.6756 27.2353 24.992 27.849L25.2677 28.3811L25.1646 28.4458C24.8266 28.6615 23.3237 29.2632 22.8419 29.3758L22.7077 29.407L22.6909 28.2421C22.6813 27.6021 22.6645 27.0388 22.6525 26.9908C22.6166 26.8614 22.4656 26.7679 22.3002 26.7727C22.1875 26.7775 22.0365 26.8638 21.991 26.9477C21.9215 27.0819 21.9047 27.5637 21.9215 28.8461L21.9382 30.0662L22.0125 30.1357C22.1612 30.2675 22.2283 30.2867 22.4584 30.2555C22.9186 30.1932 23.6425 29.9799 24.3304 29.709C26.2864 28.9348 27.7318 27.674 28.7074 25.8858C29.1628 25.0517 29.6278 23.7285 29.7285 22.9878C29.7596 22.7505 29.7477 22.7002 29.6206 22.5516L29.5439 22.4629L27.5472 22.4413C26.4494 22.4317 25.5481 22.4174 25.5433 22.4126C25.5385 22.4078 25.5745 22.24 25.6248 22.0434C25.7926 21.3843 25.8573 20.8066 25.8286 20.2577C25.7662 19.028 25.3731 17.9206 24.6636 16.9738C24.4215 16.6502 23.2398 15.4277 21.4157 13.618C19.9943 12.2062 19.6731 11.9209 19.0882 11.5518C18.4962 11.1802 17.7123 10.8902 16.9765 10.7751C16.6433 10.7248 15.8762 10.7056 15.4855 10.7392C14.1959 10.8519 12.9231 11.4343 11.9835 12.3404C11.5616 12.7479 11.2548 13.1386 10.9312 13.6851L10.8282 13.8625L9.07595 13.8529C7.17034 13.8433 7.1967 13.8457 7.22786 13.7187C7.28539 13.4885 7.78157 12.5897 8.17708 12C8.36884 11.7124 8.45033 11.6189 8.49348 11.6429C8.50786 11.6524 8.77632 11.825 9.08554 12.024C10.1882 12.7335 10.1882 12.7335 10.4111 12.5393C10.6172 12.3572 10.622 12.199 10.4207 12.0096C10.3535 11.9449 10.0875 11.7483 9.831 11.5757C9.23415 11.1754 8.96569 10.9813 8.96569 10.9525C8.96569 10.9405 9.28928 10.605 9.68479 10.2071L10.4039 9.48317L10.4638 9.54789C10.495 9.58384 10.5813 9.72526 10.658 9.8595C11.0319 10.5283 11.1062 10.6337 11.2452 10.6697C11.4394 10.7224 11.6455 10.6145 11.7007 10.4324C11.7414 10.2957 11.6839 10.1328 11.4058 9.59343C11.274 9.33935 11.1517 9.08766 11.135 9.03732L11.1014 8.94384L11.4058 8.74249C12.1058 8.27987 13.0861 7.74774 13.2347 7.74534C13.2563 7.74534 13.2827 7.76452 13.2947 7.78609C13.3043 7.81006 13.3186 8.33261 13.3258 8.94864C13.3402 10.0369 13.3426 10.068 13.3905 10.1351C13.544 10.3413 13.8532 10.3461 14.0018 10.1423C14.0833 10.0321 14.0953 9.80436 14.0953 8.39013V7.00707L13.9898 6.92078C13.8028 6.76977 13.7189 6.75778 13.4121 6.84407ZM16.7895 11.5446C17.4535 11.6309 18.2445 11.9305 18.8293 12.3164C19.1409 12.5226 19.4286 12.791 20.7925 14.1453C22.8203 16.1588 24.0428 17.4364 24.2609 17.7648C24.551 18.2034 24.8218 18.8818 24.9393 19.4667C25.1694 20.6148 25.0376 21.6647 24.5342 22.6906C24.2489 23.2755 23.9134 23.7429 23.4747 24.1672C23.259 24.3757 22.7724 24.764 22.7269 24.764C22.7149 24.764 22.6981 22.88 22.6885 20.5765C22.6717 16.4177 22.6717 16.3865 22.6238 16.3338C22.4488 16.1444 22.142 16.1636 21.9886 16.3721L21.9358 16.4416L21.9167 20.8234L21.8975 25.2027L21.7177 25.2698C20.8572 25.603 19.6203 25.6605 18.6879 25.4136L18.4458 25.3489L18.4314 22.1249C18.4242 20.3535 18.4147 17.6138 18.4099 16.039C18.4075 14.4641 18.3979 13.1026 18.3883 13.0139C18.3739 12.8653 18.3691 12.8509 18.2804 12.7814C18.0815 12.6232 17.9041 12.628 17.7171 12.7982L17.6188 12.8869L17.5997 18.9417L17.5829 24.9965L17.3672 24.8671C17.2497 24.7928 17.0603 24.6634 16.9477 24.5747C16.7631 24.4308 15.253 22.9711 14.426 22.1345L14.0977 21.8037L14.0905 17.585C14.0833 13.4214 14.0833 13.3639 14.0353 13.2728C14.009 13.2201 13.961 13.1578 13.9275 13.1338C13.7908 13.0355 13.5607 13.0595 13.4121 13.1889L13.3282 13.2632L13.3258 17.1512V21.0367L12.8081 20.5094C12.0003 19.6848 11.7342 19.3396 11.461 18.7691C10.6148 16.9978 10.8617 14.9435 12.1058 13.3783C12.3071 13.1266 12.7529 12.6903 12.9926 12.5106C13.7477 11.9449 14.613 11.6045 15.5335 11.511C15.8211 11.4823 16.4323 11.499 16.7895 11.5446Z" fill="white"/>
</svg>
