<svg width="36" height="37" viewBox="0 0 36 37" fill="none" xmlns="http://www.w3.org/2000/svg">
<circle cx="18" cy="18.5293" r="18" fill="#D978AC"/>
<path fill-rule="evenodd" clip-rule="evenodd" d="M10.6787 15.9165L10.6933 15.9696H8.14475L8.14147 15.947C7.92973 16.0108 7.82617 16.1766 7.82617 16.4581C7.82617 16.9466 10.0668 28.8081 10.1836 28.9461C10.3217 29.1267 24.4451 29.1479 24.5513 28.978C24.5831 28.9143 25.1459 26.0471 25.7831 22.5959C26.6645 17.8173 26.9193 16.2776 26.8344 16.1183C26.7936 16.052 26.7405 16.0028 26.6681 15.9696H25.9848L25.9615 15.9165H23.8929H22.746L22.7779 15.3856C22.7991 15.0988 22.8628 14.8546 22.9159 14.8546C22.9584 14.8546 23.3194 14.5573 23.7017 14.2068C24.1902 13.7396 24.392 13.4847 24.392 13.2936C24.392 13.0281 23.9566 12.5184 23.3088 12.0299C23.0752 11.8388 23.0221 11.722 23.0009 11.2016C22.969 10.6388 23.0009 10.5751 23.3619 10.2034C23.5743 9.99105 23.7973 9.67248 23.8504 9.51319C24.2539 8.4619 23.5531 7.41061 22.3531 7.25132C21.8752 7.1876 21.8221 7.14513 21.5461 6.63541C21.1744 5.94517 20.6965 5.61598 20.0488 5.61598C19.3373 5.61598 18.8807 5.90269 18.509 6.59294C18.201 7.15575 18.1798 7.16637 17.5639 7.28318C17.2241 7.35751 16.8524 7.48494 16.7462 7.58051C16.5657 7.7398 16.5232 7.7398 16.194 7.56989C15.748 7.32565 13.8578 7.21946 13.6136 7.42122C13.4968 7.5168 13.4543 7.79289 13.4543 8.49376C13.4543 9.32204 13.4331 9.44947 13.2419 9.54505C13.1251 9.60876 12.8809 9.91671 12.7003 10.2353C12.4667 10.6601 12.3074 10.8193 12.1481 10.8193C11.649 10.8193 11.0544 11.0742 10.7252 11.414C10.0987 12.083 10.1305 12.9538 10.8101 13.729C11.2349 14.2068 11.2455 14.2387 11.2561 15.067L11.2774 15.9165H10.6787ZM20.7815 7.42122C20.601 7.0708 20.3673 6.7416 20.2611 6.67789C20.2417 6.66904 20.2225 6.66019 20.204 6.65163C20.1113 6.60886 20.0346 6.57347 20.0169 6.58232C19.7196 6.63541 19.4859 6.87965 19.2099 7.39999C18.8382 8.10085 18.7957 8.12209 18.0099 8.22828C17.4152 8.31323 17.0648 8.55747 17.0648 8.91852C17.0648 9.03533 17.309 9.39638 17.6064 9.71495L18.1586 10.2884L18.0524 10.9468C17.978 11.3822 17.978 11.6901 18.0417 11.8388C18.1373 12.0405 18.1904 12.0512 18.5727 11.9768C18.7957 11.9237 19.0399 11.9025 19.1037 11.945C19.1568 11.9768 19.401 11.9237 19.6346 11.8175L20.0594 11.6264L20.7496 11.9768L21.4399 12.3273L21.716 12.1255C22.0133 11.9025 22.0133 11.8919 21.9496 10.6282C21.9283 10.2034 21.9708 10.1185 22.4168 9.66186C23.2026 8.86542 23.0433 8.38756 21.9496 8.21766C21.1638 8.10085 21.1107 8.06899 20.7815 7.42122ZM16.0029 8.79109C16.0029 8.69552 15.8861 8.56809 15.7374 8.50438C15.5994 8.44066 15.2277 8.35571 14.9304 8.31323L14.3782 8.2389L14.4419 8.58933C14.4843 8.78047 14.5162 8.99285 14.5162 9.05657C14.5162 9.1309 14.7074 9.26895 14.9516 9.37514C15.2383 9.50257 15.4825 9.72557 15.6631 10.0229C15.764 10.1845 15.8735 10.3545 15.9537 10.4791C16 10.551 16.0365 10.6077 16.056 10.6388C16.194 10.8512 17.0648 10.9999 17.0648 10.8087C17.0648 10.745 16.8736 10.4795 16.6506 10.2353C16.2684 9.82114 16.0029 9.22647 16.0029 8.79109ZM15.0472 11.0317C14.8666 10.6813 14.633 10.3521 14.5268 10.2884C14.1021 10.0654 13.8578 10.2459 13.4543 11.0317C13.1251 11.6795 13.072 11.7113 12.2862 11.8282C11.1818 11.9981 11.0331 12.4759 11.8296 13.283C12.2968 13.7502 12.3287 13.8352 12.2968 14.2493C12.2119 15.4174 12.2225 15.513 12.5198 15.736L12.8065 15.9484L13.4437 15.6086C14.1658 15.2369 14.2507 15.2263 14.6543 15.428C14.7925 15.5048 14.8641 15.5446 14.9011 15.5235C14.941 15.5009 14.941 15.4081 14.941 15.2156C14.941 15.0139 15.0153 14.7059 15.1003 14.5466C15.2808 14.1856 15.8436 13.6865 16.0666 13.6865C16.3321 13.6865 17.171 12.837 17.171 12.5609C17.171 12.1786 16.8418 11.9237 16.2577 11.8388C15.4294 11.722 15.3764 11.6901 15.0472 11.0317ZM23.1708 13.2617L22.9159 13.0493C22.7787 12.9317 22.7048 12.8684 22.6253 12.8604C22.5326 12.851 22.4323 12.917 22.2151 13.06C21.8646 13.283 21.27 13.3254 20.8452 13.1555C20.6859 13.1024 20.5691 13.0918 20.5691 13.1555C20.5691 13.3573 20.8983 13.5484 21.3549 13.6122C21.631 13.6546 21.9602 13.7608 22.0982 13.8564C22.3531 14.0157 22.3743 14.0051 22.7672 13.644L23.1708 13.2617ZM19.762 13.867C19.6028 13.5591 19.4116 13.2299 19.316 13.1237C19.1461 12.9325 18.8063 12.8901 18.5833 13.0281C18.5196 13.0706 18.2966 13.3892 18.1055 13.7396C17.7338 14.398 17.6595 14.4405 16.725 14.5891C15.8542 14.7272 15.7586 15.3112 16.4914 16.0227L16.9798 16.5006L16.9161 17.3395C16.8524 18.0403 16.8736 18.2102 17.0223 18.3695C17.2666 18.6456 17.6701 18.6138 18.1798 18.3058C18.7108 17.9766 18.955 17.9766 19.6134 18.3058C20.2505 18.6244 20.5054 18.635 20.7921 18.3483C20.962 18.1784 20.9939 18.0403 20.9514 17.7961C20.8225 17.072 20.761 16.7947 20.8468 16.5749C20.9095 16.4143 21.0508 16.2844 21.3018 16.0333C21.5991 15.736 21.8434 15.4068 21.8434 15.3006C21.8434 14.9396 21.5354 14.6635 21.0788 14.5891C20.0494 14.4421 20.0487 14.4405 19.7713 13.8855L19.762 13.867ZM15.9392 16.9253L15.4401 16.851C15.164 16.8191 14.7817 16.6811 14.5905 16.5643C14.2932 16.3837 14.1976 16.3731 14.0596 16.4793C13.8153 16.6598 13.5605 17.3288 13.5605 17.7749C13.5605 18.1359 13.5711 18.1465 13.964 18.1465C14.5162 18.1359 15.1427 17.8279 15.5675 17.3395L15.9392 16.9253ZM12.711 18.996C12.488 18.773 12.4773 18.6987 12.5304 17.8173L12.6048 16.8722H10.7358C8.90932 16.8722 8.86684 16.8722 8.91994 17.0846C8.9518 17.2014 9.18542 18.4226 9.42966 19.7925L9.88628 22.288H14.3038H18.7108L18.8913 21.9694C19.1355 21.534 19.6665 21.3322 20.516 21.3322C21.3655 21.3322 21.8965 21.534 22.1407 21.9694L22.3212 22.288H23.5743C24.2539 22.288 24.8167 22.2561 24.8167 22.2243C24.8167 22.1924 25.0291 21.0137 25.2946 19.612C25.5601 18.1996 25.7725 17.0103 25.7725 16.9572C25.7725 16.9147 24.8911 16.8722 23.8185 16.8722H21.8646L21.9177 17.6368C21.9814 18.6138 21.7797 19.0491 21.1 19.389C20.5054 19.6969 20.1231 19.6969 19.4329 19.3677L18.87 19.1129L18.2754 19.389C17.5108 19.7394 16.9161 19.6651 16.3958 19.1766C16.194 18.9854 16.0135 18.773 15.9923 18.6987C15.9604 18.5925 15.8011 18.6244 15.3551 18.8261C14.9516 19.0173 14.495 19.1235 13.8578 19.166C13.0083 19.2297 12.934 19.219 12.711 18.996ZM21.2062 24.8366C21.4292 24.6985 21.493 22.8508 21.2912 22.5641C21.1213 22.3411 20.3249 22.2349 19.9638 22.3942C19.6771 22.511 19.5709 22.9888 19.6346 23.9976C19.6559 24.4967 19.7196 24.7728 19.8258 24.8366C20.0275 24.9746 21.0045 24.964 21.2062 24.8366ZM18.6577 24.0932V23.6685V23.2437H14.3569H10.0562L10.1199 23.5304C10.1518 23.7003 10.1942 23.8915 10.2261 23.9552C10.2579 24.0614 11.1924 24.0932 14.4631 24.0932H18.6577ZM24.4982 23.9021C24.4982 23.8065 24.53 23.6154 24.5619 23.4773C24.6256 23.2437 24.615 23.2437 23.5 23.2437H22.3743V23.6685V24.0932H23.4363C24.3814 24.0932 24.4982 24.072 24.4982 23.9021ZM18.6152 26.0259C18.9338 25.548 18.9656 25.4525 18.8488 25.2613C18.7214 25.0596 18.6046 25.0489 14.5587 25.0489H10.396L10.5553 25.8666C10.5639 25.9129 10.573 25.9616 10.5823 26.012C10.6654 26.4581 10.7741 27.0416 10.8314 27.3851L10.9588 28.0754L17.3409 28.1072L23.723 28.1285L23.9566 26.8011C23.9814 26.6696 24.0058 26.5395 24.0294 26.4139C24.1373 25.8392 24.2278 25.3572 24.2539 25.2613C24.307 25.0596 24.2539 25.0489 23.3194 25.0489C22.4274 25.0489 22.3 25.0702 22.1832 25.2613C22.0664 25.4525 22.0982 25.548 22.4168 26.0259L22.7885 26.5781L22.4274 26.8223C22.2257 26.9604 22.0239 27.0666 21.9708 27.0666C21.9071 27.0666 21.716 26.8223 21.5248 26.5356L21.185 26.0047H20.516H19.847L19.5072 26.5356C19.316 26.8223 19.1249 27.0666 19.0612 27.0666C19.0081 27.0666 18.8063 26.9604 18.6046 26.8223L18.2435 26.5781L18.6152 26.0259Z" fill="white"/>
<path d="M19.4114 8.34522C18.4026 8.84432 18.4132 10.3735 19.4326 10.8513C19.9848 11.1168 20.0379 11.085 20.0379 10.5434C20.0379 10.1717 19.9848 10.0124 19.8043 9.86376C19.6025 9.70447 19.5813 9.63014 19.6769 9.47085C19.8468 9.19475 20.2078 9.17351 20.3565 9.42837C20.4415 9.59828 20.5689 9.65137 20.9405 9.65137C21.3547 9.65137 21.4184 9.61952 21.4184 9.42837C21.4184 9.06732 21.0255 8.52575 20.6326 8.3346C20.176 8.12222 19.868 8.12222 19.4114 8.34522Z" fill="white"/>
<path d="M13.9 11.849C13.5602 11.9127 12.9656 12.5392 12.8912 12.9215C12.7638 13.5481 13.093 14.1852 13.6877 14.4932C14.1974 14.7586 14.3036 14.6949 14.3036 14.1321C14.3036 13.7498 14.2505 13.6012 14.0912 13.495C13.8363 13.3463 13.8151 13.1233 14.0381 12.9428C14.2186 12.7941 14.6221 12.9003 14.6221 13.1127C14.6221 13.2189 14.7602 13.2613 15.1531 13.2613C15.769 13.2613 15.8221 13.1233 15.4717 12.5499C15.1425 11.9977 14.5266 11.7322 13.9 11.849Z" fill="white"/>
<path d="M18.2647 14.7059C17.808 14.9395 17.4364 15.6722 17.5319 16.182C17.6275 16.6598 18.2116 17.2545 18.647 17.3182C18.9761 17.3713 18.9761 17.3607 18.9761 16.8828C18.9761 16.5005 18.923 16.3625 18.7531 16.2563C18.4346 16.0545 18.5195 15.6616 18.9018 15.6191C19.1354 15.5873 19.2204 15.6298 19.2629 15.7997C19.3053 15.9908 19.4009 16.0227 19.8363 16.0227C20.431 16.0227 20.4947 15.8952 20.1655 15.29C19.8044 14.6209 18.9655 14.3661 18.2647 14.7059Z" fill="white"/>
</svg>
