<svg width="36" height="37" viewBox="0 0 36 37" fill="none" xmlns="http://www.w3.org/2000/svg">
<circle cx="18" cy="18.5293" r="18" fill="#D978AC"/>
<path d="M16.8533 6.06841C14.1469 6.53172 11.968 8.36658 11.1056 10.9079C10.7387 11.9858 10.7387 11.9858 10.7203 15.0225L10.702 17.7335L10.5414 17.7611C10.3396 17.8024 10.2341 17.9583 10.2387 18.2152C10.2433 18.3207 10.3717 19.4583 10.5231 20.7427C10.8212 23.2565 10.8442 23.3712 11.1194 23.5776C11.2433 23.6693 11.2433 23.6785 11.1836 23.8253C11.0735 24.0913 11.1011 24.4813 11.2524 24.784L11.3855 25.0455L11.2478 25.3024C11.124 25.5363 11.1148 25.5959 11.1286 25.9124C11.1423 26.2106 11.1653 26.2932 11.2937 26.4996L11.4405 26.7427L11.3625 26.9629C11.2891 27.1739 11.2891 27.2198 11.3671 27.8849C11.4772 28.8666 11.6148 29.1464 12.1056 29.3757L12.335 29.4858H18.0001H23.6653L23.8946 29.3757C24.3855 29.1464 24.5231 28.8666 24.6332 27.8849C24.7111 27.2198 24.7111 27.1739 24.6378 26.9629L24.5598 26.7427L24.7066 26.4996C24.835 26.2932 24.8579 26.2106 24.8717 25.9124C24.8855 25.5959 24.8763 25.5363 24.7524 25.3024L24.6148 25.0455L24.7478 24.784C24.8992 24.4813 24.9267 24.0913 24.8166 23.8253C24.757 23.6785 24.757 23.6693 24.8809 23.5776C25.1561 23.3712 25.179 23.2565 25.4772 20.7427C25.6286 19.4583 25.757 18.3207 25.7616 18.2152C25.7662 17.9583 25.6607 17.8024 25.4589 17.7611L25.2983 17.7335L25.28 15.0225C25.2662 12.4216 25.2616 12.2886 25.1607 11.8482C24.7937 10.2014 24.0139 8.85282 22.8166 7.80236C21.7616 6.87575 20.5322 6.30236 19.1011 6.06383C18.6194 5.98584 17.3304 5.99043 16.8533 6.06841ZM18.6423 6.82529C21.5552 7.13263 23.8304 9.25648 24.4038 12.2152C24.4634 12.5134 24.4818 13.0822 24.5001 15.1602L24.5231 17.7427H23.3258C22.6653 17.7427 22.1286 17.7244 22.1286 17.706C22.1286 17.5776 22.2616 17.5225 22.5965 17.5042C23.4634 17.4491 24.0644 16.7978 24.0689 15.8987C24.0735 15.5868 24.0552 15.5088 23.913 15.2244L23.7524 14.8987L23.913 14.573C24.0552 14.2886 24.0735 14.2106 24.0689 13.8987C24.0689 13.4354 23.9405 13.1005 23.6515 12.7978C23.3442 12.4721 23.0185 12.3207 22.5735 12.2932L22.2157 12.2702L22.124 12.0913C22.0001 11.8482 21.7203 11.5776 21.4313 11.4262C21.2111 11.3115 21.1469 11.2978 20.7066 11.2978C20.3029 11.2978 20.1974 11.3115 20.0414 11.3941L19.8579 11.495V11.0501C19.8533 10.6647 19.8396 10.5776 19.7249 10.3482C19.5735 10.0363 19.2295 9.70144 18.9267 9.56841C18.7937 9.50878 18.5781 9.46291 18.3625 9.44915C18.0185 9.4308 18.0093 9.42621 17.9359 9.27483C17.8166 9.02254 17.5185 8.73355 17.2341 8.58676C16.991 8.46749 16.9267 8.45373 16.5093 8.45373C16.0919 8.45373 16.0277 8.46749 15.7845 8.58676C15.5001 8.73355 15.202 9.02254 15.0827 9.27483C15.0093 9.42621 15.0047 9.4308 14.6515 9.44915C13.4864 9.51795 12.8121 10.6831 13.3167 11.7611L13.4589 12.0638L13.3167 12.3574C13.046 12.9079 13.0873 13.4904 13.4359 14.0042L13.6332 14.2886L13.2983 14.3161C12.8533 14.3482 12.5231 14.5088 12.2249 14.8299C11.9084 15.1785 11.7937 15.495 11.8167 15.9767C11.8258 16.2794 11.8579 16.3987 11.9772 16.6418L12.124 16.9354L12.0139 17.1189C11.9543 17.2244 11.8809 17.4033 11.8488 17.5225C11.7983 17.7335 11.7891 17.7427 11.6378 17.7427H11.4772L11.5001 15.1602C11.5231 12.3941 11.5277 12.3253 11.7845 11.4354C11.9405 10.8941 12.3671 10.0225 12.7295 9.51336C14.0781 7.62804 16.3625 6.58676 18.6423 6.82529ZM16.9451 9.36658C17.1332 9.49043 17.3121 9.77483 17.3121 9.94456C17.3121 10.0638 17.3946 10.2244 17.491 10.2978C17.5919 10.3758 17.78 10.3712 18.0414 10.284C18.3075 10.1969 18.5598 10.2473 18.78 10.4308C19.1744 10.7657 19.1607 11.3069 18.7478 11.6831C18.546 11.8712 18.5414 11.8849 18.5598 12.0959L18.5827 12.3115L18.3671 12.3895C17.9405 12.5409 17.546 12.9491 17.4084 13.3941C17.3763 13.4858 17.3533 13.6877 17.3488 13.8391L17.3442 14.1097H17.0598C16.9038 14.1097 16.7341 14.1189 16.6882 14.1326C16.624 14.151 16.5689 14.1051 16.4634 13.9491C16.0552 13.3299 15.1332 13.1143 14.4267 13.4675L14.1423 13.6097L14.0552 13.4629C13.9405 13.2794 13.9359 12.9308 14.0368 12.729C14.0781 12.6464 14.1928 12.5088 14.2891 12.4216C14.5552 12.1785 14.5506 11.9583 14.2616 11.6739C14.0277 11.44 13.9634 11.3024 13.9634 11.018C13.9634 10.7702 14.046 10.5959 14.2387 10.4308C14.4589 10.2473 14.7111 10.1969 14.9772 10.284C15.0965 10.3253 15.257 10.3574 15.3258 10.3574C15.4864 10.3574 15.6515 10.2152 15.6882 10.0455C15.7754 9.61887 15.9405 9.3941 16.257 9.26107C16.4359 9.18309 16.7433 9.23355 16.9451 9.36658ZM20.9451 12.1005C21.2249 12.1785 21.5322 12.6051 21.5322 12.917C21.5322 13.018 21.7524 13.2014 21.8763 13.2014C21.9451 13.2014 22.1011 13.1693 22.2249 13.128C22.4222 13.0638 22.4864 13.0592 22.6469 13.1097C22.9222 13.1923 23.0689 13.3115 23.179 13.5363C23.3579 13.9033 23.2891 14.1831 22.9359 14.5409C22.6469 14.8345 22.6515 14.9537 22.9543 15.2932C23.2111 15.5684 23.2754 15.7014 23.2754 15.917C23.2754 16.1189 23.1102 16.44 22.9497 16.5546C22.7066 16.7244 22.5185 16.7519 22.1653 16.6602C21.757 16.5546 21.6332 16.6051 21.5414 16.917C21.3763 17.495 21.0781 17.7702 20.6515 17.729C20.5322 17.7198 20.3855 17.6785 20.3212 17.6372L20.2066 17.5592L20.3029 17.3436C20.4313 17.0546 20.4589 16.5913 20.3671 16.2978C20.3304 16.1739 20.3029 16.0684 20.3075 16.0638C20.3121 16.0592 20.4038 16.0684 20.5093 16.0868C20.9359 16.1647 21.4176 15.9721 21.6699 15.6235C21.8488 15.3803 21.8488 15.206 21.6744 15.0317C21.4726 14.8345 21.2387 14.8712 21.0322 15.1326C20.8488 15.3712 20.4955 15.3391 20.3579 15.073C20.2203 14.8024 20.4497 14.4858 20.7891 14.4858C20.8809 14.4858 21.0414 14.3299 21.0919 14.1923C21.1332 14.073 21.0414 13.8069 20.9359 13.7519C20.7754 13.6647 20.4176 13.7014 20.1653 13.8253C19.7203 14.0455 19.4955 14.4354 19.5231 14.9491C19.5322 15.1235 19.5368 15.2657 19.5368 15.2657C19.5368 15.2335 19.0231 15.128 18.8671 15.128H18.6515L18.6744 14.9491C18.6974 14.7794 18.6836 14.7519 18.468 14.5225C18.1148 14.151 18.0552 13.9033 18.2341 13.5363C18.3442 13.3115 18.491 13.1923 18.7662 13.1097C18.9267 13.0592 18.991 13.0638 19.1882 13.128C19.6286 13.2702 19.7983 13.1923 19.9038 12.7978C19.9772 12.5042 20.0598 12.3712 20.257 12.2244C20.4818 12.0546 20.6607 12.0225 20.9451 12.1005ZM15.5001 14.1785C15.6194 14.2335 15.7937 14.3941 15.8488 14.495C15.8763 14.5501 15.8442 14.6326 15.7295 14.8069C15.6423 14.94 15.5689 15.0638 15.5689 15.0822C15.5689 15.1005 15.4084 15.128 15.2157 15.1372C14.5873 15.1647 14.1148 15.4767 13.8396 16.0363C13.7249 16.2657 13.7111 16.3482 13.7111 16.7381C13.7111 17.1418 13.7249 17.2014 13.8579 17.4583L14.0047 17.7427H13.3167C12.9405 17.7427 12.6332 17.729 12.6332 17.7152C12.6332 17.6418 12.757 17.4675 12.9359 17.3024C13.2249 17.0317 13.2157 16.8666 12.913 16.5317C12.5322 16.1097 12.5001 15.7473 12.8167 15.3849C13.0552 15.1143 13.1607 15.0959 13.9084 15.2014C14.1699 15.2381 14.3075 15.1189 14.3763 14.7932C14.4955 14.229 15.0231 13.94 15.5001 14.1785ZM17.3855 14.9858C17.6102 15.0868 17.7524 15.2611 17.8212 15.5134C17.913 15.8574 17.9589 15.94 18.0735 15.995C18.2249 16.0638 18.2937 16.0592 18.5689 15.9721C18.7616 15.9124 18.8396 15.9079 18.9955 15.9491C19.3717 16.0501 19.6056 16.3436 19.6056 16.7106C19.6056 16.9767 19.5093 17.1739 19.2754 17.3803C19.1102 17.5225 19.0873 17.5684 19.0873 17.7427C19.0873 17.917 19.1102 17.9629 19.2754 18.1051C19.5093 18.3115 19.6056 18.5088 19.6056 18.7748C19.6056 19.1418 19.3717 19.4354 18.9955 19.5363C18.8396 19.5776 18.7616 19.573 18.5689 19.5134C18.2937 19.4262 18.2249 19.4216 18.0735 19.4904C17.9589 19.5455 17.913 19.628 17.8212 19.9721C17.7524 20.2244 17.6102 20.3987 17.3855 20.4996C17.1469 20.6097 16.9726 20.6051 16.7341 20.4996C16.491 20.3895 16.3121 20.1556 16.2616 19.8712C16.2157 19.628 16.0506 19.44 15.8809 19.44C15.8304 19.44 15.679 19.4721 15.546 19.5134C15.3442 19.5684 15.2616 19.573 15.1011 19.5317C14.7111 19.4262 14.4222 18.9813 14.5093 18.6143C14.5598 18.3803 14.6194 18.2932 14.8304 18.1005C14.991 17.9537 15.0185 17.9079 15.0185 17.7427C15.0185 17.5776 14.991 17.5317 14.8304 17.3849C14.6194 17.1923 14.5598 17.1051 14.5093 16.8712C14.4222 16.5042 14.7111 16.0592 15.1011 15.9537C15.2616 15.9124 15.3442 15.917 15.546 15.9721C15.679 16.0134 15.8304 16.0455 15.8809 16.0455C16.0506 16.0455 16.2157 15.8574 16.2616 15.6143C16.3121 15.3299 16.491 15.0959 16.7341 14.9858C16.9726 14.8803 17.1469 14.8758 17.3855 14.9858ZM13.6974 18.8895C13.757 19.7106 14.3763 20.3069 15.2066 20.3482C15.5552 20.3666 15.5552 20.3666 15.6332 20.5225C15.7433 20.7611 16.0644 21.0868 16.3075 21.2106C16.7249 21.4216 17.2983 21.4308 17.7387 21.2381C18.0093 21.1189 18.3258 20.8253 18.4589 20.5684L18.5689 20.3666L18.9222 20.3482C19.3763 20.3207 19.702 20.1693 20.0093 19.8345C20.257 19.5592 20.4313 19.128 20.4313 18.7748V18.5684H22.679H24.9313L24.9038 18.7152C24.8763 18.8803 24.4222 22.7519 24.4222 22.8299C24.4222 22.8528 24.39 22.9079 24.3488 22.9446C24.2891 23.0042 24.1515 23.018 23.5506 23.018C23.1515 23.018 22.7708 23.0363 22.702 23.0638C22.6332 23.0913 22.5552 23.1739 22.5139 23.2702C22.4589 23.4079 22.4589 23.4537 22.5139 23.5868C22.6011 23.7932 22.7662 23.8436 23.3533 23.8436C23.7983 23.8436 23.8396 23.8528 23.9405 23.9583C24.1148 24.128 24.1102 24.362 23.9359 24.5225C23.835 24.6143 23.7708 24.6235 23.3763 24.6235C22.7891 24.6235 22.5965 24.6785 22.5185 24.8666C22.4405 25.0592 22.4772 25.2473 22.624 25.3574C22.7203 25.4354 22.8075 25.4491 23.2387 25.4491C23.8075 25.4491 23.9726 25.5042 24.0506 25.7244C24.1056 25.8895 24.0644 26.0271 23.9176 26.1602C23.8304 26.2381 23.7341 26.2565 23.2478 26.2748C22.7478 26.2932 22.6699 26.3115 22.5827 26.3941C22.4451 26.5317 22.4451 26.7886 22.5873 26.94C22.6882 27.0455 22.7249 27.0546 23.1561 27.0546C23.7203 27.0546 23.8166 27.0776 23.8533 27.2244C23.8946 27.3803 23.7845 28.3345 23.7111 28.4813C23.6744 28.5455 23.5965 28.6189 23.5277 28.651C23.3533 28.729 12.6469 28.729 12.4726 28.651C12.2937 28.5684 12.2341 28.417 12.1744 27.8482C12.1102 27.2657 12.1286 27.1235 12.2754 27.0822C12.335 27.0684 14.4176 27.0546 16.9038 27.0546H21.4267L21.5277 26.9446C21.6653 26.7978 21.6699 26.5317 21.5368 26.3941L21.4359 26.2978L16.8121 26.2748C12.2662 26.2519 12.1836 26.2519 12.0827 26.1602C11.9359 26.0271 11.8946 25.8895 11.9497 25.7244C12.0506 25.44 11.9313 25.4491 15.6148 25.4491H18.968L19.0781 25.3345C19.2387 25.1785 19.2341 24.9079 19.0735 24.7565L18.9543 24.6464L15.5414 24.6235C12.2066 24.6005 12.1286 24.6005 12.0414 24.5088C11.89 24.3528 11.8992 24.1143 12.0598 23.9583L12.1699 23.8436H16.7157C21.7433 23.8436 21.5368 23.8574 21.6148 23.5592C21.6699 23.3666 21.5873 23.151 21.4359 23.0776C21.3488 23.0317 20.2433 23.018 16.5231 23.018C12.2203 23.018 11.7157 23.0088 11.6515 22.9446C11.6102 22.9079 11.5781 22.8528 11.5781 22.8299C11.5781 22.7519 11.124 18.8803 11.0965 18.7152L11.0689 18.5684H12.3717H13.6744L13.6974 18.8895Z" fill="white"/>
<path d="M16.0048 10.9723C15.3672 11.2705 15.1195 12.0274 15.459 12.6512C15.6746 13.0457 16.0415 13.2567 16.514 13.2567C16.8581 13.2613 17.1425 13.142 17.3764 12.8989C17.6058 12.665 17.6425 12.5549 17.5737 12.3439C17.4727 12.0274 17.1058 11.9723 16.8856 12.2338C16.6654 12.4952 16.4773 12.5319 16.2617 12.3485C16.1562 12.2613 16.1195 12.1925 16.1195 12.0824C16.1195 11.8622 16.2296 11.7429 16.5094 11.6604C16.7938 11.5824 16.8993 11.4631 16.8993 11.2384C16.8993 10.876 16.4773 10.7521 16.0048 10.9723Z" fill="white"/>
<path d="M16.5874 16.619C16.1516 16.8117 15.8442 17.2704 15.8442 17.7429C15.8442 17.9401 15.8763 18.0686 15.9819 18.2796C16.2066 18.7245 16.5507 18.9355 17.0598 18.9355C17.4314 18.9355 17.6974 18.8209 17.9543 18.5411C18.1011 18.3805 18.1378 18.3071 18.1378 18.1603C18.1378 17.9355 18.0231 17.7933 17.8121 17.7612C17.6653 17.7337 17.6241 17.7566 17.4039 17.9493C17.1929 18.1328 17.1424 18.1603 17.0231 18.1374C16.5323 18.0411 16.5552 17.4264 17.0552 17.3438C17.4039 17.2888 17.5598 16.9355 17.3534 16.6695C17.2708 16.564 17.225 16.5502 17.0002 16.5502C16.858 16.5548 16.6699 16.5823 16.5874 16.619Z" fill="white"/>
<path d="M23.2754 19.4766C23.1837 19.55 23.1607 19.6647 23.0369 20.6784C22.9635 21.2977 22.9176 21.8482 22.9314 21.9032C23.0002 22.1876 23.3947 22.2931 23.5919 22.0821C23.6837 21.9812 23.7112 21.8482 23.8305 20.8573C23.9727 19.6739 23.9681 19.5408 23.7754 19.4399C23.6424 19.3665 23.3855 19.3894 23.2754 19.4766Z" fill="white"/>
<path d="M20.2661 24.6873C20.0918 24.7652 19.9908 25.0038 20.0596 25.1873C20.1468 25.4074 20.2661 25.4487 20.8578 25.4487C21.3716 25.4487 21.4037 25.4441 21.5092 25.3341C21.6789 25.1689 21.6789 24.9396 21.5046 24.7607C21.4037 24.6552 21.3578 24.646 20.8991 24.6322C20.5505 24.623 20.367 24.6414 20.2661 24.6873Z" fill="white"/>
</svg>
