<svg width="36" height="37" viewBox="0 0 36 37" fill="none" xmlns="http://www.w3.org/2000/svg">
<circle cx="18" cy="18.5293" r="18" fill="#D978AC"/>
<path d="M16.3682 9.705C16.2038 9.79892 15.9925 9.91631 15.8986 9.96326C15.8047 10.0102 15.6169 10.1394 15.4995 10.2567C15.3586 10.3859 15.2295 10.4211 15.1473 10.3624C15.0769 10.3037 14.7599 10.1863 14.4547 10.1041C14.0203 9.99848 13.7856 9.99848 13.3747 10.1159C13.0812 10.198 12.8464 10.3154 12.8464 10.3624C12.8464 10.4211 12.7643 10.468 12.6703 10.468C12.5764 10.468 12.3651 10.7615 12.189 11.1254C11.9425 11.6537 11.8956 11.8767 11.966 12.2994C12.0247 12.7572 12.013 12.8159 11.8134 12.8159C11.1443 12.8159 11.1912 13.2737 12.1421 16.9833C12.506 18.3685 12.7056 19.2137 12.9756 20.4346L13.1047 21.0567L10.8625 23.3107C8.3973 25.7759 8.37382 25.8111 8.86687 26.6563C9.2073 27.2198 9.72382 27.6893 10.4047 28.0298C10.7099 28.1824 10.9916 28.3115 11.0386 28.3115C11.0738 28.3115 12.0599 27.3607 13.2221 26.1985C14.396 25.0363 15.3703 24.1089 15.4056 24.1324C15.429 24.1676 15.3938 24.4259 15.3234 24.7193C15.253 25.0128 15.1943 25.6585 15.1943 26.1633C15.1943 26.985 15.2295 27.1493 15.5347 27.6307C15.8751 28.1589 16.239 28.4054 16.4856 28.2528C16.6734 28.1354 16.6264 27.4076 16.4386 27.3372C16.1686 27.2315 15.9925 26.3746 16.0747 25.635C16.2038 24.4846 16.2273 24.4728 16.6382 25.1185C17.1077 25.8346 17.3073 26.175 17.4951 26.5507C17.7416 27.032 18.5164 27.7715 18.9508 27.9476C19.1738 28.0298 19.6551 28.1472 20.0073 28.1941C20.5708 28.2763 20.6764 28.2528 20.8525 28.0533C21.1812 27.6776 20.9464 27.3724 20.3125 27.3724C19.3969 27.3724 18.6221 26.7854 17.9647 25.6115C17.8825 25.4472 17.7299 25.1889 17.6477 25.0246C17.5538 24.8602 17.366 24.5667 17.2251 24.3672L16.9669 24.0033L17.4599 24.0854C17.953 24.1793 18.8216 24.3789 20.4182 24.7898C23.4586 25.5646 23.7286 25.6115 23.846 25.3063C23.893 25.1772 24.0456 24.9893 24.1864 24.8837C24.4916 24.6372 24.9377 23.8272 25.0434 23.3341C25.1021 23.0524 25.2195 22.9467 25.6538 22.8059C26.3112 22.5711 26.8043 22.1954 27.133 21.6437C27.4734 21.092 27.4734 20.8102 27.1095 20.1059C26.9099 19.695 26.6516 19.4133 26.229 19.1433C25.736 18.8263 25.6421 18.7089 25.6421 18.4037C25.6421 18.2041 25.6069 17.9224 25.5716 17.7698C25.5247 17.5937 25.5482 17.5115 25.6538 17.5115C25.7477 17.5115 25.959 17.3237 26.1469 17.1124C26.4051 16.772 26.4638 16.5841 26.4638 16.0441C26.4638 15.3633 26.3112 15.0346 25.7125 14.3654C25.5012 14.1189 25.466 13.9663 25.5012 13.1211C25.5364 12.3111 25.513 12.0998 25.2899 11.7359C24.9143 11.0902 24.5973 10.9376 23.6816 10.9376C23.083 10.9376 22.7895 10.9963 22.4843 11.1841C22.1321 11.3954 22.0734 11.4072 21.8973 11.2428C21.369 10.7615 19.9838 10.562 19.4203 10.8789C19.0095 11.1137 18.9508 11.102 18.9508 10.7498C18.9508 10.5502 18.7864 10.2802 18.493 9.98674C18.0703 9.55239 17.9999 9.52892 17.3543 9.52892C16.9669 9.52892 16.5325 9.61109 16.3682 9.705ZM17.6947 10.4563C18.0586 10.5972 18.3051 11.5128 18.2112 12.405L18.1525 13.0154L18.6103 13.168C19.1151 13.3441 19.8899 14.0954 19.8899 14.4359C19.8899 14.7059 19.6082 15.0933 19.209 15.3867L18.8803 15.6098L18.4108 15.1637C18.1525 14.9172 17.8356 14.7059 17.7182 14.6824C17.5421 14.6472 17.4951 14.5298 17.4834 14.0837C17.4834 13.7433 17.4012 13.4498 17.2721 13.3089C17.1664 13.1915 17.0725 13.0389 17.0725 12.9802C17.0725 12.8276 16.2038 12.4637 15.8399 12.4637C15.4525 12.4637 14.7482 12.8276 14.6543 13.0741C14.5721 13.3441 14.3373 13.3441 13.633 13.0741C12.9521 12.8159 12.8464 12.675 12.8464 12.0646C12.8464 11.0667 13.809 10.6441 14.8421 11.1724C15.1003 11.3015 15.3586 11.4072 15.429 11.4072C15.4995 11.4072 15.8047 11.1959 16.1099 10.9494C16.8025 10.3741 17.1782 10.2567 17.6947 10.4563ZM20.9816 11.7711C21.2516 11.912 21.5569 12.1233 21.6625 12.2641L21.8503 12.4989L22.4021 12.1937C23.1416 11.7828 23.9047 11.6772 24.2921 11.9237C24.5621 12.0998 24.5856 12.1937 24.5856 12.9098C24.5856 13.3793 24.5151 13.8372 24.4095 14.0367C24.1747 14.4828 24.1864 14.6941 24.4564 14.6941C24.8086 14.6941 25.0551 14.8233 25.0551 14.9993C25.0551 15.0933 25.1138 15.1637 25.1843 15.1637C25.3721 15.1637 25.6538 15.962 25.5716 16.2789C25.4543 16.7485 24.8438 17.042 23.9751 17.042C23.2238 17.042 23.2003 17.0537 23.1416 17.3824C23.1064 17.5702 22.989 17.805 22.8834 17.8989C22.7895 18.0046 22.7073 18.1337 22.7073 18.1807C22.7073 18.2393 22.543 18.4389 22.3434 18.6385C22.0499 18.9085 21.956 18.9437 21.909 18.8028C21.8151 18.5563 20.6999 17.5115 20.5121 17.5115C20.4299 17.5115 20.3595 17.3824 20.3595 17.218C20.3595 16.948 20.3125 16.9246 19.8899 16.9246C19.5025 16.9246 19.4203 16.8893 19.4203 16.6898C19.4203 16.5607 19.4086 16.4198 19.4086 16.3611C19.3969 16.3141 19.5025 16.2202 19.6434 16.1498C19.7725 16.0793 19.9838 15.9385 20.1012 15.8211C20.3125 15.6333 20.3477 15.6567 20.7938 16.1028C21.2047 16.5137 21.3456 16.5724 21.7916 16.5724C22.6721 16.5724 23.4116 15.8446 23.4116 14.9759C23.4116 14.518 23.083 13.755 22.8716 13.755C22.7895 13.755 22.7073 13.6963 22.6838 13.6259C22.6603 13.5554 22.3669 13.4615 22.0382 13.438C21.5569 13.3911 21.3456 13.4263 21.0169 13.6259L20.606 13.8841L20.4299 13.5437C20.3243 13.3441 20.0425 13.0272 19.7843 12.8276C19.2795 12.4285 19.256 12.1115 19.7021 11.7359C20.0308 11.4659 20.383 11.4776 20.9816 11.7711ZM16.333 13.5437C16.4856 13.6846 16.603 13.9076 16.603 14.0367C16.603 14.2598 16.5443 14.2833 16.0512 14.2598C15.7343 14.248 15.4525 14.2363 15.4173 14.2363C15.1943 14.2128 15.2177 13.8137 15.4408 13.5554C15.7695 13.215 15.9808 13.215 16.333 13.5437ZM13.8912 14.1189C14.3608 14.3537 14.6777 14.6002 14.7834 14.8233C14.9595 15.152 14.9947 15.1637 15.8164 15.1637C16.779 15.1637 17.589 15.5041 18.1525 16.138C18.446 16.4785 18.5164 16.6546 18.6925 17.5115C18.7747 17.8754 18.8216 17.9224 19.256 17.9928C20.1482 18.1454 20.9934 18.8733 21.4512 19.8828C21.686 20.3876 21.6977 20.7046 21.5099 21.2446C21.369 21.6202 21.3808 21.6554 21.7095 21.9254C22.5547 22.6298 22.719 22.8176 22.9303 23.4515C23.1769 24.1793 23.1416 24.5902 22.8364 24.508C22.2612 24.3437 21.2986 24.0972 20.8877 23.9915C20.1834 23.8272 19.3499 23.6159 18.3638 23.3811C17.8825 23.2637 17.1077 23.0759 16.6499 22.9702C15.8516 22.7824 15.7812 22.7354 14.9008 21.855C14.0673 21.0215 13.9734 20.8689 13.8325 20.2467C13.6682 19.4485 13.3747 18.2511 13.0812 17.1007C12.5764 15.1637 12.4473 14.612 12.4003 14.1894C12.3534 13.7667 12.3534 13.755 12.7525 13.755C12.9756 13.755 13.4921 13.9193 13.8912 14.1189ZM22.3199 14.4828C22.6369 14.7763 22.6603 15.0111 22.4021 15.375C22.1673 15.7154 21.4747 15.7389 21.2986 15.4102C21.1343 15.0815 21.146 14.788 21.369 14.4828C21.5921 14.1541 21.9677 14.1541 22.3199 14.4828ZM24.7382 18.6972C24.7147 19.3428 24.7264 19.3546 25.1256 19.4954C25.3486 19.5776 25.5247 19.695 25.5247 19.7537C25.5247 19.8124 25.5834 19.8594 25.6656 19.8594C25.8886 19.8594 26.4638 20.5872 26.4638 20.8807C26.4638 21.0215 26.3699 21.2563 26.2643 21.3972C26.0177 21.6789 24.9612 22.2072 24.6208 22.2072C24.433 22.2072 24.3625 22.3363 24.2334 22.8763C24.0808 23.5572 23.8812 23.9563 23.8812 23.5924C23.8812 23.3224 23.3999 22.2072 23.2825 22.2072C23.083 22.2072 23.1769 21.8315 23.3999 21.7728C23.5173 21.7493 23.7286 21.4911 23.8695 21.2093C24.2099 20.5285 24.116 19.9767 23.5643 19.4367C23.1886 19.0611 23.1769 19.0259 23.3647 18.838C23.4703 18.7324 23.6112 18.4859 23.6699 18.3098C23.7756 18.0046 23.8343 17.9693 24.2803 18.0046L24.7616 18.0398L24.7382 18.6972ZM22.9656 20.0589C23.2473 20.3172 23.2356 20.6693 22.9186 20.998C22.5077 21.4324 22.4138 21.3385 22.449 20.5637C22.496 19.8241 22.6016 19.7185 22.9656 20.0589ZM14.2551 22.442C14.5838 22.7707 14.8421 23.0876 14.8421 23.1463C14.8421 23.2167 13.9382 24.1676 12.8347 25.2711L10.839 27.2667L10.5221 27.0672C10.1347 26.8207 9.55947 26.1985 9.55947 26.0341C9.55947 25.9285 13.539 21.855 13.6447 21.855C13.6564 21.855 13.9382 22.125 14.2551 22.442Z" fill="white"/>
</svg>
