<svg width="35" height="35" viewBox="0 0.5 35 35" fill="none" xmlns="http://www.w3.org/2000/svg">
<g clip-path="url(#clip0_33_9302)">
<path d="M34.9897 0.529297H0.0102539C0.00459083 0.529297 0 0.533888 0 0.539551V35.519C0 35.5247 0.00459083 35.5293 0.0102539 35.5293H34.9897C34.9954 35.5293 35 35.5247 35 35.519V0.539551C35 0.533888 34.9954 0.529297 34.9897 0.529297Z" fill="#5281B8"/>
<path d="M18.7305 25.3437C19.0723 25.2754 19.6875 25.1387 19.6875 24.3184C19.6875 24.3184 19.6192 22.2676 20.5762 21.9941C21.5332 21.7207 22.7637 23.9766 24.0625 24.8652C25.0196 25.4805 25.7715 25.4121 25.7715 25.4121L29.2579 25.3437C29.2579 25.3437 31.0352 25.207 30.2149 23.7715C30.1465 23.6348 29.5996 22.7461 27.5489 20.9004C25.4297 18.8496 25.7715 19.1914 28.3008 15.7051C29.8731 13.5859 30.5567 12.2871 30.3516 11.8086C30.0782 11.3301 28.9844 11.3984 28.9844 11.3984H25.0879C24.6778 11.3984 24.4727 11.4668 24.2676 11.8086C24.2676 11.8086 23.6524 13.5176 22.8321 14.8848C21.1231 17.8242 20.4395 17.9609 20.0977 17.7559C19.4825 17.4141 19.6192 16.1152 19.6192 15.2266C19.6192 12.1504 20.0977 11.0566 18.7305 10.7832C17.8418 10.6465 14.6973 10.5098 13.7403 10.9883C13.2618 11.2617 12.9883 11.7402 13.1934 11.8086C13.3985 11.8086 14.0137 11.8769 14.3555 12.2871C14.9024 13.1758 14.9707 17.4141 14.2188 17.8242C13.1934 18.5762 10.5957 13.5859 9.98051 11.9453C9.84379 11.5351 9.63871 11.4668 9.16019 11.3301H5.40043C4.99027 11.3301 4.37504 11.3984 4.64848 12.2187C6.49418 16.0469 10.3223 25.4121 17.2266 25.3437H18.7305Z" fill="white"/>
</g>
<defs>
<clipPath id="clip0_33_9302">
<rect width="35" height="35" fill="white" transform="translate(0 0.529297)"/>
</clipPath>
</defs>
</svg>
