<svg width="35" height="35" viewBox="0 0.5 35 35" fill="none" xmlns="http://www.w3.org/2000/svg">
<g clip-path="url(#clip0_33_9305)">
<path d="M34.9897 0.529297H0.0102539C0.00459083 0.529297 0 0.533888 0 0.539551V35.519C0 35.5247 0.00459083 35.5293 0.0102539 35.5293H34.9897C34.9954 35.5293 35 35.5247 35 35.519V0.539551C35 0.533888 34.9954 0.529297 34.9897 0.529297Z" fill="#37AEE2"/>
<path d="M13.6035 28.1465C12.8516 28.1465 12.9199 27.873 12.7148 27.1895L10.5273 20.0117L27.2754 10.168" fill="#C8DAEA"/>
<path d="M13.6035 28.1465C14.082 28.1465 14.3555 27.873 14.6973 27.5996L17.7734 24.6602L13.9453 22.3359" fill="#A9C9DD"/>
<path d="M13.9453 22.336L23.1738 29.1035C24.1309 29.7188 24.9512 29.377 25.2246 28.1465L28.9844 10.5098C29.3262 9.00588 28.3692 8.32229 27.3438 8.80081L5.40041 17.2774C3.96486 17.8242 3.96486 18.7129 5.12697 19.0547L10.8008 20.8321L23.7891 12.5606C24.4043 12.2188 24.9512 12.3555 24.541 12.834" fill="#F6FBFE"/>
</g>
<defs>
<clipPath id="clip0_33_9305">
<rect width="35" height="35" fill="white" transform="translate(0 0.529297)"/>
</clipPath>
</defs>
</svg>
